<?xml version="1.0" encoding="UTF-8" standalone="no"?>
<!-- Created with Inkscape (http://www.inkscape.org/) -->

<svg
   xmlns:dc="http://purl.org/dc/elements/1.1/"
   xmlns:cc="http://creativecommons.org/ns#"
   xmlns:rdf="http://www.w3.org/1999/02/22-rdf-syntax-ns#"
   xmlns:svg="http://www.w3.org/2000/svg"
   xmlns="http://www.w3.org/2000/svg"
   xmlns:sodipodi="http://sodipodi.sourceforge.net/DTD/sodipodi-0.dtd"
   xmlns:inkscape="http://www.inkscape.org/namespaces/inkscape"
   width="139.5489mm"
   height="78.779297mm"
   viewBox="0 0 139.5489 78.779297"
   version="1.1"
   id="svg4645"
   sodipodi:docname="terminal.svg"
   inkscape:version="0.91 r13725">
  <defs
     id="defs4639" />
  <sodipodi:namedview
     id="base"
     pagecolor="#ffffff"
     bordercolor="#666666"
     borderopacity="1.0"
     inkscape:pageopacity="0.0"
     inkscape:pageshadow="2"
     inkscape:zoom="1.0018074"
     inkscape:cx="268.57376"
     inkscape:cy="151.92811"
     inkscape:document-units="mm"
     inkscape:current-layer="layer1"
     showgrid="false"
     fit-margin-top="0"
     fit-margin-left="0"
     fit-margin-right="0"
     fit-margin-bottom="0"
     inkscape:window-width="1366"
     inkscape:window-height="704"
     inkscape:window-x="0"
     inkscape:window-y="27"
     inkscape:window-maximized="1" />
  <metadata
     id="metadata4642">
    <rdf:RDF>
      <cc:Work
         rdf:about="">
        <dc:format>image/svg+xml</dc:format>
        <dc:type
           rdf:resource="http://purl.org/dc/dcmitype/StillImage" />
        <dc:title />
      </cc:Work>
    </rdf:RDF>
  </metadata>
  <g
     inkscape:label="Layer 1"
     inkscape:groupmode="layer"
     id="layer1"
     transform="translate(-26.566572,-85.978363)">
    <rect
       style="fill:#000000;fill-opacity:1;stroke:none;stroke-width:3.43192196;stroke-miterlimit:4;stroke-dasharray:none;stroke-opacity:1"
       id="rect5190"
       width="139.5489"
       height="78.779297"
       x="26.566572"
       y="85.978363"
       rx="1.8520833"
       ry="1.8520833" />
    <g
       id="g5251"
       transform="translate(1.0583333)">
      <circle
         r="2.3769538"
         cy="91.952209"
         cx="32.274872"
         id="path5194"
         style="fill:#d9515d;fill-opacity:1;stroke:none;stroke-width:5.99999952;stroke-miterlimit:4;stroke-dasharray:none;stroke-opacity:1" />
      <circle
         r="2.3769538"
         cy="91.952209"
         cx="38.889454"
         id="path5194-3"
         style="fill:#f4c025;fill-opacity:1;stroke:none;stroke-width:5.99999952;stroke-miterlimit:4;stroke-dasharray:none;stroke-opacity:1" />
      <circle
         r="2.3769538"
         cy="91.952209"
         cx="45.504036"
         id="path5194-3-6"
         style="fill:#3ec930;fill-opacity:1;stroke:none;stroke-width:5.99999952;stroke-miterlimit:4;stroke-dasharray:none;stroke-opacity:1" />
    </g>
    <g
       style="font-style:normal;font-weight:normal;font-size:10.58333302px;line-height:0.60000002;font-family:sans-serif;letter-spacing:0px;word-spacing:0px;fill:#000000;fill-opacity:1;stroke:none;stroke-width:0.26458332"
       id="text5228">
      <path
         d="m 32.729913,106.99235 -0.223931,0 -0.0022,-0.67404 q -0.235128,-0.004 -0.470256,-0.0537 -0.235128,-0.0515 -0.472495,-0.15227 l 0,-0.40308 q 0.22841,0.14332 0.461299,0.21721 0.235127,0.0717 0.483691,0.0739 l 0,-1.02113 q -0.494888,-0.0806 -0.721058,-0.27319 -0.223932,-0.19258 -0.223932,-0.52848 0,-0.36501 0.244085,-0.5755 0.244085,-0.2105 0.700905,-0.24185 l 0,-0.52624 0.223931,0 0,0.51952 q 0.208256,0.009 0.403076,0.0448 0.194821,0.0336 0.380683,0.094 l 0,0.39188 q -0.185862,-0.094 -0.382922,-0.14555 -0.19482,-0.0515 -0.400837,-0.0605 l 0,0.95619 q 0.508324,0.0784 0.74793,0.27991 0.239607,0.20154 0.239607,0.55088 0,0.37844 -0.255282,0.59789 -0.253042,0.21722 -0.732255,0.2508 l 0,0.67852 z m -0.223931,-2.39831 0,-0.91811 q -0.25976,0.0291 -0.396358,0.14779 -0.136598,0.11868 -0.136598,0.31574 0,0.19258 0.125401,0.30007 0.127641,0.10749 0.407555,0.15451 z m 0.223931,0.42995 0,0.96962 q 0.284393,-0.0381 0.427709,-0.16123 0.145555,-0.12316 0.145555,-0.3247 0,-0.19706 -0.138837,-0.3135 -0.136598,-0.11645 -0.434427,-0.17019 z"
         style="font-style:normal;font-variant:normal;font-weight:normal;font-stretch:normal;font-size:4.58611107px;line-height:1;font-family:Hack;-inkscape-font-specification:Hack;fill:#ffffff;fill-opacity:1;stroke-width:0.26458332"
         id="path3463" />
      <path
         d="m 37.445905,104.19545 q -0.06942,-0.0403 -0.152274,-0.0582 -0.08061,-0.0202 -0.179145,-0.0202 -0.349332,0 -0.537435,0.22841 -0.185862,0.22617 -0.185862,0.65164 l 0,1.32119 -0.414273,0 0,-2.50803 0.414273,0 0,0.38964 q 0.12988,-0.22841 0.338136,-0.33813 0.208256,-0.11197 0.506084,-0.11197 0.04255,0 0.09405,0.007 0.05151,0.004 0.114205,0.0157 l 0.0022,0.42323 z"
         style="font-style:normal;font-variant:normal;font-weight:normal;font-stretch:normal;font-size:4.58611107px;line-height:1;font-family:Hack;-inkscape-font-specification:Hack;fill:#ffffff;fill-opacity:1;stroke-width:0.26458332"
         id="path3465" />
      <path
         d="m 37.88257,103.81028 0.412034,0 0,2.50803 -0.412034,0 0,-2.50803 z m 0,-0.97634 0.412034,0 0,0.52176 -0.412034,0 0,-0.52176 z"
         style="font-style:normal;font-variant:normal;font-weight:normal;font-stretch:normal;font-size:4.58611107px;line-height:1;font-family:Hack;-inkscape-font-specification:Hack;fill:#ffffff;fill-opacity:1;stroke-width:0.26458332"
         id="path3467" />
      <path
         d="m 40.42419,102.83394 0,0.34262 -0.394119,0 q -0.221692,0 -0.309025,0.0896 -0.08509,0.0896 -0.08509,0.32246 l 0,0.22169 0.678511,0 0,0.32023 -0.678511,0 0,2.1878 -0.414273,0 0,-2.1878 -0.394119,0 0,-0.32023 0.394119,0 0,-0.17466 q 0,-0.41875 0.19482,-0.6091 0.19482,-0.19258 0.61805,-0.19258 l 0.389641,0 z"
         style="font-style:normal;font-variant:normal;font-weight:normal;font-stretch:normal;font-size:4.58611107px;line-height:1;font-family:Hack;-inkscape-font-specification:Hack;fill:#ffffff;fill-opacity:1;stroke-width:0.26458332"
         id="path3469" />
      <path
         d="m 43.68015,104.19545 q -0.06942,-0.0403 -0.152273,-0.0582 -0.08062,-0.0202 -0.179145,-0.0202 -0.349333,0 -0.537435,0.22841 -0.185863,0.22617 -0.185863,0.65164 l 0,1.32119 -0.414273,0 0,-2.50803 0.414273,0 0,0.38964 q 0.12988,-0.22841 0.338136,-0.33813 0.208256,-0.11197 0.506085,-0.11197 0.04255,0 0.09405,0.007 0.0515,0.004 0.114205,0.0157 l 0.0022,0.42323 z"
         style="font-style:normal;font-variant:normal;font-weight:normal;font-stretch:normal;font-size:4.58611107px;line-height:1;font-family:Hack;-inkscape-font-specification:Hack;fill:#ffffff;fill-opacity:1;stroke-width:0.26458332"
         id="path3471" />
      <path
         d="m 46.163547,104.96129 0,0.20154 -1.894458,0 q 0.02687,0.42547 0.255281,0.6494 0.23065,0.22169 0.640444,0.22169 0.237367,0 0.459059,-0.0582 0.223931,-0.0582 0.443383,-0.17467 l 0,0.38964 q -0.221691,0.094 -0.45458,0.14332 -0.232888,0.0493 -0.472495,0.0493 -0.600135,0 -0.951707,-0.34933 -0.349333,-0.34933 -0.349333,-0.94499 0,-0.61581 0.331418,-0.97634 0.333658,-0.36277 0.897964,-0.36277 0.506085,0 0.799435,0.32694 0.295589,0.3247 0.295589,0.88453 z m -0.412034,-0.12092 q -0.0045,-0.33814 -0.190341,-0.53968 -0.183624,-0.20153 -0.48817,-0.20153 -0.344854,0 -0.55311,0.19482 -0.206017,0.19482 -0.237367,0.54863 l 1.468988,-0.002 z"
         style="font-style:normal;font-variant:normal;font-weight:normal;font-stretch:normal;font-size:4.58611107px;line-height:1;font-family:Hack;-inkscape-font-specification:Hack;fill:#ffffff;fill-opacity:1;stroke-width:0.26458332"
         id="path3473" />
      <path
         d="m 47.086143,105.06654 q 0,0.45458 0.185863,0.71434 0.188103,0.25752 0.515042,0.25752 0.32694,0 0.515042,-0.25752 0.188102,-0.25976 0.188102,-0.71434 0,-0.45458 -0.188102,-0.7121 -0.188102,-0.25976 -0.515042,-0.25976 -0.326939,0 -0.515042,0.25976 -0.185863,0.25752 -0.185863,0.7121 z m 1.404049,0.87557 q -0.12988,0.22393 -0.329179,0.33366 -0.197059,0.10748 -0.474734,0.10748 -0.45458,0 -0.741212,-0.36276 -0.284393,-0.36277 -0.284393,-0.95395 0,-0.59118 0.284393,-0.95395 0.286632,-0.36277 0.741212,-0.36277 0.277675,0 0.474734,0.10973 0.199299,0.10749 0.329179,0.33142 l 0,-0.38069 0.412033,0 0,3.46198 -0.412033,0 0,-1.33015 z"
         style="font-style:normal;font-variant:normal;font-weight:normal;font-stretch:normal;font-size:4.58611107px;line-height:1;font-family:Hack;-inkscape-font-specification:Hack;fill:#ffffff;fill-opacity:1;stroke-width:0.26458332"
         id="path3475" />
      <path
         d="m 49.708377,105.32854 0,-1.51826 0.412034,0 0,1.50258 q 0,0.35605 0.138837,0.5352 0.138837,0.1769 0.416512,0.1769 0.333658,0 0.526238,-0.21273 0.194821,-0.21274 0.194821,-0.57998 l 0,-1.42197 0.412033,0 0,2.50803 -0.412033,0 0,-0.38516 q -0.150034,0.22841 -0.349333,0.34038 -0.19706,0.10972 -0.459059,0.10972 -0.432187,0 -0.656118,-0.26871 -0.223932,-0.26872 -0.223932,-0.786 z m 1.036802,-1.57872 0,0 z"
         style="font-style:normal;font-variant:normal;font-weight:normal;font-stretch:normal;font-size:4.58611107px;line-height:1;font-family:Hack;-inkscape-font-specification:Hack;fill:#ffffff;fill-opacity:1;stroke-width:0.26458332"
         id="path3477" />
      <path
         d="m 54.807291,104.96129 0,0.20154 -1.894458,0 q 0.02687,0.42547 0.255282,0.6494 0.230649,0.22169 0.640443,0.22169 0.237367,0 0.459059,-0.0582 0.223931,-0.0582 0.443384,-0.17467 l 0,0.38964 q -0.221692,0.094 -0.45458,0.14332 -0.232889,0.0493 -0.472495,0.0493 -0.600136,0 -0.951708,-0.34933 -0.349333,-0.34933 -0.349333,-0.94499 0,-0.61581 0.331419,-0.97634 0.333657,-0.36277 0.897964,-0.36277 0.506084,0 0.799434,0.32694 0.295589,0.3247 0.295589,0.88453 z m -0.412033,-0.12092 q -0.0045,-0.33814 -0.190342,-0.53968 -0.183623,-0.20153 -0.48817,-0.20153 -0.344854,0 -0.55311,0.19482 -0.206016,0.19482 -0.237367,0.54863 l 1.468989,-0.002 z"
         style="font-style:normal;font-variant:normal;font-weight:normal;font-stretch:normal;font-size:4.58611107px;line-height:1;font-family:Hack;-inkscape-font-specification:Hack;fill:#ffffff;fill-opacity:1;stroke-width:0.26458332"
         id="path3479" />
      <path
         d="m 57.082432,103.88418 0,0.38964 q -0.174666,-0.0896 -0.362768,-0.13436 -0.188102,-0.0448 -0.38964,-0.0448 -0.306786,0 -0.461299,0.0941 -0.152273,0.094 -0.152273,0.28215 0,0.14332 0.109726,0.22617 0.109727,0.0806 0.441145,0.15451 l 0.141076,0.0313 q 0.438906,0.0941 0.622529,0.26648 0.185863,0.17019 0.185863,0.47698 0,0.34933 -0.277675,0.55311 -0.275435,0.20377 -0.759126,0.20377 -0.201538,0 -0.420991,-0.0403 -0.217213,-0.0381 -0.459059,-0.11645 l 0,-0.42547 q 0.22841,0.11869 0.450102,0.17915 0.221692,0.0582 0.438905,0.0582 0.29111,0 0.447862,-0.0985 0.156752,-0.10077 0.156752,-0.28215 0,-0.16795 -0.114205,-0.25752 -0.111965,-0.0896 -0.494888,-0.17243 l -0.143316,-0.0336 q -0.382922,-0.0806 -0.55311,-0.24633 -0.170188,-0.16794 -0.170188,-0.45905 0,-0.35382 0.250803,-0.5464 0.250803,-0.19258 0.712102,-0.19258 0.228409,0 0.429948,0.0336 0.201538,0.0336 0.371725,0.10077 z"
         style="font-style:normal;font-variant:normal;font-weight:normal;font-stretch:normal;font-size:4.58611107px;line-height:1;font-family:Hack;-inkscape-font-specification:Hack;fill:#ffffff;fill-opacity:1;stroke-width:0.26458332"
         id="path3481" />
      <path
         d="m 58.282703,103.09818 0,0.7121 0.848699,0 0,0.32023 -0.848699,0 0,1.3615 q 0,0.30678 0.08285,0.39412 0.08509,0.0873 0.342615,0.0873 l 0.42323,0 0,0.34485 -0.42323,0 q -0.476973,0 -0.658358,-0.1769 -0.181384,-0.17915 -0.181384,-0.6494 l 0,-1.3615 -0.302307,0 0,-0.32023 0.302307,0 0,-0.7121 0.414273,0 z"
         style="font-style:normal;font-variant:normal;font-weight:normal;font-stretch:normal;font-size:4.58611107px;line-height:1;font-family:Hack;-inkscape-font-specification:Hack;fill:#ffffff;fill-opacity:1;stroke-width:0.26458332"
         id="path3483" />
      <path
         d="m 59.467299,104.87844 1.20699,0 0,0.36724 -1.20699,0 0,-0.36724 z"
         style="font-style:normal;font-variant:normal;font-weight:normal;font-stretch:normal;font-size:4.58611107px;line-height:1;font-family:Hack;-inkscape-font-specification:Hack;fill:#ffffff;fill-opacity:1;stroke-width:0.26458332"
         id="path3485" />
      <path
         d="m 61.780509,105.93763 1.578715,0 0,0.38068 -2.122868,0 0,-0.38068 q 0.257521,-0.26648 0.700905,-0.71434 0.445623,-0.4501 0.559828,-0.57998 0.217213,-0.24409 0.302307,-0.41204 0.08733,-0.17018 0.08733,-0.33365 0,-0.26648 -0.188102,-0.43443 -0.185863,-0.16795 -0.485931,-0.16795 -0.212734,0 -0.450102,0.0739 -0.235127,0.0739 -0.503845,0.22393 l 0,-0.45682 q 0.273196,-0.10973 0.510563,-0.16571 0.237367,-0.056 0.434427,-0.056 0.51952,0 0.828545,0.25976 0.309025,0.25976 0.309025,0.69419 0,0.20601 -0.07838,0.39188 -0.07614,0.18362 -0.279914,0.43442 -0.05598,0.0649 -0.35605,0.37621 -0.300068,0.30902 -0.84646,0.86661 z"
         style="font-style:normal;font-variant:normal;font-weight:normal;font-stretch:normal;font-size:4.58611107px;line-height:1;font-family:Hack;-inkscape-font-specification:Hack;fill:#ffffff;fill-opacity:1;stroke-width:0.26458332"
         id="path3487" />
      <path
         d="m 65.278314,103.27285 q -0.349332,0 -0.526238,0.34485 -0.174666,0.34262 -0.174666,1.03233 0,0.68746 0.174666,1.03232 0.176906,0.34261 0.526238,0.34261 0.351572,0 0.526239,-0.34261 0.176905,-0.34486 0.176905,-1.03232 0,-0.68971 -0.176905,-1.03233 -0.174667,-0.34485 -0.526239,-0.34485 z m 0,-0.35829 q 0.562068,0 0.857657,0.44562 0.297828,0.44339 0.297828,1.28985 0,0.84422 -0.297828,1.28984 -0.295589,0.44338 -0.857657,0.44338 -0.562067,0 -0.859895,-0.44338 -0.29559,-0.44562 -0.29559,-1.28984 0,-0.84646 0.29559,-1.28985 0.297828,-0.44562 0.859895,-0.44562 z"
         style="font-style:normal;font-variant:normal;font-weight:normal;font-stretch:normal;font-size:4.58611107px;line-height:1;font-family:Hack;-inkscape-font-specification:Hack;fill:#ffffff;fill-opacity:1;stroke-width:0.26458332"
         id="path3489" />
      <path
         d="m 68.198377,103.27285 q -0.349332,0 -0.526238,0.34485 -0.174666,0.34262 -0.174666,1.03233 0,0.68746 0.174666,1.03232 0.176906,0.34261 0.526238,0.34261 0.351572,0 0.526239,-0.34261 0.176905,-0.34486 0.176905,-1.03232 0,-0.68971 -0.176905,-1.03233 -0.174667,-0.34485 -0.526239,-0.34485 z m 0,-0.35829 q 0.562068,0 0.857657,0.44562 0.297828,0.44339 0.297828,1.28985 0,0.84422 -0.297828,1.28984 -0.295589,0.44338 -0.857657,0.44338 -0.562067,0 -0.859895,-0.44338 -0.29559,-0.44562 -0.29559,-1.28984 0,-0.84646 0.29559,-1.28985 0.297828,-0.44562 0.859895,-0.44562 z"
         style="font-style:normal;font-variant:normal;font-weight:normal;font-stretch:normal;font-size:4.58611107px;line-height:1;font-family:Hack;-inkscape-font-specification:Hack;fill:#ffffff;fill-opacity:1;stroke-width:0.26458332"
         id="path3491" />
      <path
         d="m 70.229434,105.93763 0.738973,0 0,-2.55058 -0.803913,0.16123 0,-0.41203 0.799434,-0.16123 0.452341,0 0,2.96261 0.738973,0 0,0.38068 -1.925808,0 0,-0.38068 z"
         style="font-style:normal;font-variant:normal;font-weight:normal;font-stretch:normal;font-size:4.58611107px;line-height:1;font-family:Hack;-inkscape-font-specification:Hack;fill:#ffffff;fill-opacity:1;stroke-width:0.26458332"
         id="path3493" />
      <path
         d="m 73.071121,105.74953 0.472495,0 0,0.56878 -0.472495,0 0,-0.56878 z"
         style="font-style:normal;font-variant:normal;font-weight:normal;font-stretch:normal;font-size:4.58611107px;line-height:1;font-family:Hack;-inkscape-font-specification:Hack;fill:#ffffff;fill-opacity:1;stroke-width:0.26458332"
         id="path3495" />
      <path
         d="m 75.926242,104.19545 q -0.06942,-0.0403 -0.152274,-0.0582 -0.08061,-0.0202 -0.179144,-0.0202 -0.349333,0 -0.537435,0.22841 -0.185863,0.22617 -0.185863,0.65164 l 0,1.32119 -0.414273,0 0,-2.50803 0.414273,0 0,0.38964 q 0.12988,-0.22841 0.338136,-0.33813 0.208256,-0.11197 0.506084,-0.11197 0.04255,0 0.09405,0.007 0.0515,0.004 0.114205,0.0157 l 0.0022,0.42323 z"
         style="font-style:normal;font-variant:normal;font-weight:normal;font-stretch:normal;font-size:4.58611107px;line-height:1;font-family:Hack;-inkscape-font-specification:Hack;fill:#ffffff;fill-opacity:1;stroke-width:0.26458332"
         id="path3497" />
      <path
         d="m 76.362909,103.81028 0.412033,0 0,2.50803 -0.412033,0 0,-2.50803 z m 0,-0.97634 0.412033,0 0,0.52176 -0.412033,0 0,-0.52176 z"
         style="font-style:normal;font-variant:normal;font-weight:normal;font-stretch:normal;font-size:4.58611107px;line-height:1;font-family:Hack;-inkscape-font-specification:Hack;fill:#ffffff;fill-opacity:1;stroke-width:0.26458332"
         id="path3499" />
      <path
         d="m 78.904529,102.83394 0,0.34262 -0.394119,0 q -0.221692,0 -0.309025,0.0896 -0.08509,0.0896 -0.08509,0.32246 l 0,0.22169 0.678512,0 0,0.32023 -0.678512,0 0,2.1878 -0.414272,0 0,-2.1878 -0.394119,0 0,-0.32023 0.394119,0 0,-0.17466 q 0,-0.41875 0.19482,-0.6091 0.19482,-0.19258 0.61805,-0.19258 l 0.38964,0 z"
         style="font-style:normal;font-variant:normal;font-weight:normal;font-stretch:normal;font-size:4.58611107px;line-height:1;font-family:Hack;-inkscape-font-specification:Hack;fill:#ffffff;fill-opacity:1;stroke-width:0.26458332"
         id="path3501" />
      <path
         d="m 80.725088,102.97502 0.609093,0 1.482424,2.7969 0,-2.7969 0.438906,0 0,3.34329 -0.609093,0 -1.482425,-2.7969 0,2.7969 -0.438905,0 0,-3.34329 z"
         style="font-style:normal;font-variant:normal;font-weight:normal;font-stretch:normal;font-size:4.58611107px;line-height:1;font-family:Hack;-inkscape-font-specification:Hack;fill:#ffffff;fill-opacity:1;stroke-width:0.26458332"
         id="path3503" />
      <path
         d="m 85.273131,103.42064 -0.613572,1.66381 1.229382,0 -0.61581,-1.66381 z m -0.255282,-0.44562 0.512802,0 1.274169,3.34329 -0.470255,0 -0.304547,-0.85765 -1.507057,0 -0.304546,0.85765 -0.476974,0 1.276408,-3.34329 z"
         style="font-style:normal;font-variant:normal;font-weight:normal;font-stretch:normal;font-size:4.58611107px;line-height:1;font-family:Hack;-inkscape-font-specification:Hack;fill:#ffffff;fill-opacity:1;stroke-width:0.26458332"
         id="path3505" />
      <path
         d="m 87.290754,102.97502 0.674033,0 0.853178,2.27514 0.857657,-2.27514 0.674032,0 0,3.34329 -0.441144,0 0,-2.93573 -0.862135,2.29305 -0.454581,0 -0.862135,-2.29305 0,2.93573 -0.438905,0 0,-3.34329 z"
         style="font-style:normal;font-variant:normal;font-weight:normal;font-stretch:normal;font-size:4.58611107px;line-height:1;font-family:Hack;-inkscape-font-specification:Hack;fill:#ffffff;fill-opacity:1;stroke-width:0.26458332"
         id="path3507" />
      <path
         d="m 91.249857,102.97502 2.11391,0 0,0.38068 -1.661569,0 0,0.98978 1.592151,0 0,0.38068 -1.592151,0 0,1.21147 1.701877,0 0,0.38068 -2.154218,0 0,-3.34329 z"
         style="font-style:normal;font-variant:normal;font-weight:normal;font-stretch:normal;font-size:4.58611107px;line-height:1;font-family:Hack;-inkscape-font-specification:Hack;fill:#ffffff;fill-opacity:1;stroke-width:0.26458332"
         id="path3509" />
      <path
         d="m 94.187835,104.23575 2.870798,0 0,0.37621 -2.870798,0 0,-0.37621 z m 0,0.91364 2.870798,0 0,0.38069 -2.870798,0 0,-0.38069 z"
         style="font-style:normal;font-variant:normal;font-weight:normal;font-stretch:normal;font-size:4.58611107px;line-height:1;font-family:Hack;-inkscape-font-specification:Hack;fill:#ffffff;fill-opacity:1;stroke-width:0.26458332"
         id="path3511" />
      <path
         d="m 98.366387,102.97502 0,1.24282 -0.380683,0 0,-1.24282 0.380683,0 z m 0.84646,0 0,1.24282 -0.380683,0 0,-1.24282 0.380683,0 z"
         style="font-style:normal;font-variant:normal;font-weight:normal;font-stretch:normal;font-size:4.58611107px;line-height:1;font-family:Hack;-inkscape-font-specification:Hack;fill:#ffffff;fill-opacity:1;stroke-width:0.26458332"
         id="path3513" />
      <path
         d="m 100.56092,103.34675 0,2.59984 0.54639,0 q 0.69195,0 1.01217,-0.31351 0.32246,-0.3135 0.32246,-0.98977 0,-0.6718 -0.32246,-0.98306 -0.32022,-0.3135 -1.01217,-0.3135 l -0.54639,0 z m -0.45234,-0.37173 0.92931,0 q 0.97186,0 1.42644,0.40532 0.45458,0.40307 0.45458,1.26297 0,0.86437 -0.45682,1.26969 -0.45682,0.40531 -1.4242,0.40531 l -0.92931,0 0,-3.34329 z"
         style="font-style:normal;font-variant:normal;font-weight:normal;font-stretch:normal;font-size:4.58611107px;line-height:1;font-family:Hack;-inkscape-font-specification:Hack;fill:#ffffff;fill-opacity:1;stroke-width:0.26458332"
         id="path3515" />
      <path
         d="m 104.75962,105.05758 q -0.49936,0 -0.69194,0.11421 -0.19259,0.1142 -0.19259,0.38964 0,0.21945 0.14332,0.34933 0.14556,0.12764 0.39412,0.12764 0.34261,0 0.54863,-0.24185 0.20826,-0.24408 0.20826,-0.64716 l 0,-0.0918 -0.4098,0 z m 0.82183,-0.17019 0,1.43092 -0.41203,0 0,-0.38068 q -0.14108,0.22841 -0.35157,0.33814 -0.2105,0.10748 -0.51505,0.10748 -0.38516,0 -0.61357,-0.21497 -0.22617,-0.21721 -0.22617,-0.57998 0,-0.42323 0.28215,-0.63821 0.2844,-0.21497 0.84646,-0.21497 l 0.57775,0 0,-0.0403 q 0,-0.28439 -0.18811,-0.4389 -0.18586,-0.15675 -0.52399,-0.15675 -0.21498,0 -0.41876,0.0515 -0.20377,0.0515 -0.39188,0.15451 l 0,-0.38068 q 0.22618,-0.0873 0.43891,-0.12988 0.21273,-0.0448 0.41427,-0.0448 0.54416,0 0.81287,0.28216 0.26872,0.28215 0.26872,0.85541 z"
         style="font-style:normal;font-variant:normal;font-weight:normal;font-stretch:normal;font-size:4.58611107px;line-height:1;font-family:Hack;-inkscape-font-specification:Hack;fill:#ffffff;fill-opacity:1;stroke-width:0.26458332"
         id="path3517" />
      <path
         d="m 106.1368,103.81028 0.43667,0 0.78376,2.10496 0.78375,-2.10496 0.43667,0 -0.94051,2.50803 -0.55983,0 -0.94051,-2.50803 z"
         style="font-style:normal;font-variant:normal;font-weight:normal;font-stretch:normal;font-size:4.58611107px;line-height:1;font-family:Hack;-inkscape-font-specification:Hack;fill:#ffffff;fill-opacity:1;stroke-width:0.26458332"
         id="path3519" />
      <path
         d="m 111.2917,104.96129 0,0.20154 -1.89446,0 q 0.0269,0.42547 0.25528,0.6494 0.23065,0.22169 0.64045,0.22169 0.23736,0 0.45906,-0.0582 0.22393,-0.0582 0.44338,-0.17467 l 0,0.38964 q -0.22169,0.094 -0.45458,0.14332 -0.23289,0.0493 -0.47249,0.0493 -0.60014,0 -0.95171,-0.34933 -0.34934,-0.34933 -0.34934,-0.94499 0,-0.61581 0.33142,-0.97634 0.33366,-0.36277 0.89797,-0.36277 0.50608,0 0.79943,0.32694 0.29559,0.3247 0.29559,0.88453 z m -0.41203,-0.12092 q -0.004,-0.33814 -0.19034,-0.53968 -0.18363,-0.20153 -0.48817,-0.20153 -0.34486,0 -0.55311,0.19482 -0.20602,0.19482 -0.23737,0.54863 l 1.46899,-0.002 z"
         style="font-style:normal;font-variant:normal;font-weight:normal;font-stretch:normal;font-size:4.58611107px;line-height:1;font-family:Hack;-inkscape-font-specification:Hack;fill:#ffffff;fill-opacity:1;stroke-width:0.26458332"
         id="path3521" />
      <path
         d="m 112.35761,102.97502 0,1.24282 -0.38068,0 0,-1.24282 0.38068,0 z m 0.84646,0 0,1.24282 -0.38068,0 0,-1.24282 0.38068,0 z"
         style="font-style:normal;font-variant:normal;font-weight:normal;font-stretch:normal;font-size:4.58611107px;line-height:1;font-family:Hack;-inkscape-font-specification:Hack;fill:#ffffff;fill-opacity:1;stroke-width:0.26458332"
         id="path3523" />
      <path
         d="m 33.524869,115.91601 0,0.32246 -0.138837,0 q -0.557589,0 -0.747931,-0.16571 -0.188102,-0.16571 -0.188102,-0.6606 l 0,-0.5352 q 0,-0.33813 -0.120923,-0.46801 -0.120922,-0.12988 -0.438905,-0.12988 l -0.136598,0 0,-0.32022 0.136598,0 q 0.320222,0 0.438905,-0.12764 0.120923,-0.12988 0.120923,-0.46354 l 0,-0.53744 q 0,-0.49488 0.188102,-0.65835 0.190342,-0.16571 0.747931,-0.16571 l 0.138837,0 0,0.32022 -0.152273,0 q -0.315743,0 -0.412034,0.0985 -0.09629,0.0985 -0.09629,0.41427 l 0,0.55535 q 0,0.35157 -0.103008,0.51056 -0.100769,0.15899 -0.347094,0.21498 0.248564,0.0605 0.349333,0.21945 0.100769,0.15899 0.100769,0.50832 l 0,0.55535 q 0,0.31575 0.09629,0.41428 0.09629,0.0985 0.412034,0.0985 l 0.152273,0 z"
         style="font-style:normal;font-variant:normal;font-weight:normal;font-stretch:normal;font-size:4.58611107px;line-height:1;font-family:Hack;-inkscape-font-specification:Hack;fill:#ffffff;fill-opacity:1;stroke-width:0.26458332"
         id="path3525" />
      <path
         d="m 34.9222,116.73335 0,1.24282 -0.380683,0 0,-1.24282 0.380683,0 z m 0.84646,0 0,1.24282 -0.380683,0 0,-1.24282 0.380683,0 z"
         style="font-style:normal;font-variant:normal;font-weight:normal;font-stretch:normal;font-size:4.58611107px;line-height:1;font-family:Hack;-inkscape-font-specification:Hack;fill:#ffffff;fill-opacity:1;stroke-width:0.26458332"
         id="path3527" />
      <path
         d="m 37.78628,118.81591 q -0.499367,0 -0.691947,0.11421 -0.192581,0.1142 -0.192581,0.38964 0,0.21945 0.143316,0.34933 0.145555,0.12764 0.394119,0.12764 0.342614,0 0.548631,-0.24184 0.208256,-0.24409 0.208256,-0.64716 l 0,-0.0918 -0.409794,0 z m 0.821828,-0.17018 0,1.43092 -0.412034,0 0,-0.38069 q -0.141077,0.22841 -0.351572,0.33814 -0.210495,0.10749 -0.515042,0.10749 -0.385161,0 -0.613571,-0.21498 -0.226171,-0.21721 -0.226171,-0.57998 0,-0.42323 0.282154,-0.6382 0.284392,-0.21498 0.84646,-0.21498 l 0.577742,0 0,-0.0403 q 0,-0.2844 -0.188102,-0.43891 -0.185863,-0.15675 -0.523999,-0.15675 -0.214974,0 -0.418751,0.0515 -0.203778,0.0515 -0.39188,0.15452 l 0,-0.38069 q 0.22617,-0.0873 0.438905,-0.12988 0.212735,-0.0448 0.414273,-0.0448 0.544153,0 0.81287,0.28215 0.268718,0.28215 0.268718,0.85542 z"
         style="font-style:normal;font-variant:normal;font-weight:normal;font-stretch:normal;font-size:4.58611107px;line-height:1;font-family:Hack;-inkscape-font-specification:Hack;fill:#ffffff;fill-opacity:1;stroke-width:0.26458332"
         id="path3529" />
      <path
         d="m 39.416499,119.08687 0,-1.51825 0.412034,0 0,1.50258 q 0,0.35605 0.138837,0.53519 0.138837,0.17691 0.416512,0.17691 0.333657,0 0.526238,-0.21274 0.19482,-0.21273 0.19482,-0.57998 l 0,-1.42196 0.412034,0 0,2.50803 -0.412034,0 0,-0.38516 q -0.150034,0.2284 -0.349332,0.34037 -0.19706,0.10973 -0.459059,0.10973 -0.432187,0 -0.656119,-0.26872 -0.223931,-0.26872 -0.223931,-0.786 z m 1.036802,-1.57871 0,0 z"
         style="font-style:normal;font-variant:normal;font-weight:normal;font-stretch:normal;font-size:4.58611107px;line-height:1;font-family:Hack;-inkscape-font-specification:Hack;fill:#ffffff;fill-opacity:1;stroke-width:0.26458332"
         id="path3531" />
      <path
         d="m 42.777706,116.85652 0,0.7121 0.8487,0 0,0.32022 -0.8487,0 0,1.3615 q 0,0.30679 0.08285,0.39412 0.08509,0.0873 0.342615,0.0873 l 0.42323,0 0,0.34486 -0.42323,0 q -0.476974,0 -0.658358,-0.17691 -0.181384,-0.17914 -0.181384,-0.6494 l 0,-1.3615 -0.302307,0 0,-0.32022 0.302307,0 0,-0.7121 0.414272,0 z"
         style="font-style:normal;font-variant:normal;font-weight:normal;font-stretch:normal;font-size:4.58611107px;line-height:1;font-family:Hack;-inkscape-font-specification:Hack;fill:#ffffff;fill-opacity:1;stroke-width:0.26458332"
         id="path3533" />
      <path
         d="m 46.255358,118.56287 0,1.51378 -0.412034,0 0,-1.50034 q 0,-0.35605 -0.138837,-0.53296 -0.138837,-0.1769 -0.416512,-0.1769 -0.333658,0 -0.526238,0.21273 -0.192581,0.21274 -0.192581,0.57998 l 0,1.41749 -0.414273,0 0,-3.48437 0.414273,0 0,1.36598 q 0.147794,-0.22617 0.347093,-0.33814 0.201538,-0.11196 0.463538,-0.11196 0.432187,0 0.653879,0.26871 0.221692,0.26648 0.221692,0.786 z"
         style="font-style:normal;font-variant:normal;font-weight:normal;font-stretch:normal;font-size:4.58611107px;line-height:1;font-family:Hack;-inkscape-font-specification:Hack;fill:#ffffff;fill-opacity:1;stroke-width:0.26458332"
         id="path3535" />
      <path
         d="m 48.053526,117.85749 q -0.331419,0 -0.523999,0.25976 -0.192581,0.25752 -0.192581,0.70762 0,0.4501 0.190341,0.70986 0.192581,0.25752 0.526239,0.25752 0.329179,0 0.521759,-0.25976 0.192581,-0.25976 0.192581,-0.70762 0,-0.44562 -0.192581,-0.70538 -0.19258,-0.262 -0.521759,-0.262 z m 0,-0.34933 q 0.537435,0 0.84422,0.34933 0.306786,0.34933 0.306786,0.96738 0,0.61581 -0.306786,0.96738 -0.306785,0.34934 -0.84422,0.34934 -0.539675,0 -0.84646,-0.34934 -0.304547,-0.35157 -0.304547,-0.96738 0,-0.61805 0.304547,-0.96738 0.306785,-0.34933 0.84646,-0.34933 z"
         style="font-style:normal;font-variant:normal;font-weight:normal;font-stretch:normal;font-size:4.58611107px;line-height:1;font-family:Hack;-inkscape-font-specification:Hack;fill:#ffffff;fill-opacity:1;stroke-width:0.26458332"
         id="path3537" />
      <path
         d="m 51.338597,117.95378 q -0.06942,-0.0403 -0.152273,-0.0582 -0.08062,-0.0202 -0.179145,-0.0202 -0.349333,0 -0.537435,0.22841 -0.185863,0.22617 -0.185863,0.65164 l 0,1.3212 -0.414273,0 0,-2.50803 0.414273,0 0,0.38964 q 0.12988,-0.22841 0.338136,-0.33814 0.208256,-0.11196 0.506085,-0.11196 0.04255,0 0.09405,0.007 0.0515,0.004 0.114205,0.0157 l 0.0022,0.42323 z"
         style="font-style:normal;font-variant:normal;font-weight:normal;font-stretch:normal;font-size:4.58611107px;line-height:1;font-family:Hack;-inkscape-font-specification:Hack;fill:#ffffff;fill-opacity:1;stroke-width:0.26458332"
         id="path3539" />
      <path
         d="m 52.164902,116.73335 0,1.24282 -0.380683,0 0,-1.24282 0.380683,0 z m 0.84646,0 0,1.24282 -0.380683,0 0,-1.24282 0.380683,0 z"
         style="font-style:normal;font-variant:normal;font-weight:normal;font-stretch:normal;font-size:4.58611107px;line-height:1;font-family:Hack;-inkscape-font-specification:Hack;fill:#ffffff;fill-opacity:1;stroke-width:0.26458332"
         id="path3541" />
      <path
         d="m 53.99442,119.50786 0.472495,0 0,0.56879 -0.472495,0 0,-0.56879 z m 0,-1.80264 0.472495,0 0,0.56878 -0.472495,0 0,-0.56878 z"
         style="font-style:normal;font-variant:normal;font-weight:normal;font-stretch:normal;font-size:4.58611107px;line-height:1;font-family:Hack;-inkscape-font-specification:Hack;fill:#ffffff;fill-opacity:1;stroke-width:0.26458332"
         id="path3543" />
      <path
         d="m 57.288449,116.73335 0,1.24282 -0.380683,0 0,-1.24282 0.380683,0 z m 0.84646,0 0,1.24282 -0.380683,0 0,-1.24282 0.380683,0 z"
         style="font-style:normal;font-variant:normal;font-weight:normal;font-stretch:normal;font-size:4.58611107px;line-height:1;font-family:Hack;-inkscape-font-specification:Hack;fill:#ffffff;fill-opacity:1;stroke-width:0.26458332"
         id="path3545" />
      <path
         d="m 59.030634,116.73335 0.452341,0 0,1.37046 1.643655,0 0,-1.37046 0.452341,0 0,3.3433 -0.452341,0 0,-1.59215 -1.643655,0 0,1.59215 -0.452341,0 0,-3.3433 z"
         style="font-style:normal;font-variant:normal;font-weight:normal;font-stretch:normal;font-size:4.58611107px;line-height:1;font-family:Hack;-inkscape-font-specification:Hack;fill:#ffffff;fill-opacity:1;stroke-width:0.26458332"
         id="path3547" />
      <path
         d="m 63.59659,117.17898 -0.613571,1.66381 1.229382,0 -0.615811,-1.66381 z m -0.255281,-0.44563 0.512802,0 1.274169,3.3433 -0.470256,0 -0.304546,-0.85766 -1.507057,0 -0.304547,0.85766 -0.476973,0 1.276408,-3.3433 z"
         style="font-style:normal;font-variant:normal;font-weight:normal;font-stretch:normal;font-size:4.58611107px;line-height:1;font-family:Hack;-inkscape-font-specification:Hack;fill:#ffffff;fill-opacity:1;stroke-width:0.26458332"
         id="path3549" />
      <path
         d="m 65.61421,116.73335 0.452341,0 0,2.96261 1.62798,0 0,0.38069 -2.080321,0 0,-3.3433 z"
         style="font-style:normal;font-variant:normal;font-weight:normal;font-stretch:normal;font-size:4.58611107px;line-height:1;font-family:Hack;-inkscape-font-specification:Hack;fill:#ffffff;fill-opacity:1;stroke-width:0.26458332"
         id="path3551" />
      <path
         d="m 68.538754,116.73335 0,1.24282 -0.380683,0 0,-1.24282 0.380683,0 z m 0.84646,0 0,1.24282 -0.380683,0 0,-1.24282 0.380683,0 z"
         style="font-style:normal;font-variant:normal;font-weight:normal;font-stretch:normal;font-size:4.58611107px;line-height:1;font-family:Hack;-inkscape-font-specification:Hack;fill:#ffffff;fill-opacity:1;stroke-width:0.26458332"
         id="path3553" />
      <path
         d="m 70.368272,119.50786 0.472495,0 0,0.38516 -0.367247,0.71658 -0.288871,0 0.183623,-0.71658 0,-0.38516 z"
         style="font-style:normal;font-variant:normal;font-weight:normal;font-stretch:normal;font-size:4.58611107px;line-height:1;font-family:Hack;-inkscape-font-specification:Hack;fill:#ffffff;fill-opacity:1;stroke-width:0.26458332"
         id="path3555" />
      <path
         d="m 34.9222,121.31946 0,1.24282 -0.380683,0 0,-1.24282 0.380683,0 z m 0.84646,0 0,1.24282 -0.380683,0 0,-1.24282 0.380683,0 z"
         style="font-style:normal;font-variant:normal;font-weight:normal;font-stretch:normal;font-size:4.58611107px;line-height:1;font-family:Hack;-inkscape-font-specification:Hack;fill:#ffffff;fill-opacity:1;stroke-width:0.26458332"
         id="path3557" />
      <path
         d="m 37.054025,121.44263 0,0.7121 0.848699,0 0,0.32022 -0.848699,0 0,1.3615 q 0,0.30679 0.08285,0.39412 0.08509,0.0873 0.342614,0.0873 l 0.42323,0 0,0.34486 -0.42323,0 q -0.476973,0 -0.658357,-0.17691 -0.181385,-0.17914 -0.181385,-0.6494 l 0,-1.3615 -0.302307,0 0,-0.32022 0.302307,0 0,-0.7121 0.414273,0 z"
         style="font-style:normal;font-variant:normal;font-weight:normal;font-stretch:normal;font-size:4.58611107px;line-height:1;font-family:Hack;-inkscape-font-specification:Hack;fill:#ffffff;fill-opacity:1;stroke-width:0.26458332"
         id="path3559" />
      <path
         d="m 40.592138,123.30573 0,0.20154 -1.894458,0 q 0.02687,0.42547 0.255282,0.6494 0.230649,0.2217 0.640443,0.2217 0.237367,0 0.459059,-0.0582 0.223931,-0.0582 0.443384,-0.17466 l 0,0.38964 q -0.221692,0.094 -0.454581,0.14331 -0.232888,0.0493 -0.472495,0.0493 -0.600135,0 -0.951707,-0.34933 -0.349333,-0.34934 -0.349333,-0.94499 0,-0.61582 0.331418,-0.97634 0.333658,-0.36277 0.897964,-0.36277 0.506085,0 0.799435,0.32694 0.295589,0.3247 0.295589,0.88452 z m -0.412033,-0.12092 q -0.0045,-0.33813 -0.190342,-0.53967 -0.183623,-0.20154 -0.48817,-0.20154 -0.344854,0 -0.55311,0.19482 -0.206017,0.19482 -0.237367,0.54863 l 1.468989,-0.002 z"
         style="font-style:normal;font-variant:normal;font-weight:normal;font-stretch:normal;font-size:4.58611107px;line-height:1;font-family:Hack;-inkscape-font-specification:Hack;fill:#ffffff;fill-opacity:1;stroke-width:0.26458332"
         id="path3561" />
      <path
         d="m 43.272594,122.15473 -0.906921,1.22042 0.953947,1.28761 -0.485931,0 -0.730016,-0.9853 -0.730015,0.9853 -0.485931,0 0.974101,-1.31224 -0.891246,-1.19579 0.48593,0 0.665076,0.89348 0.665076,-0.89348 0.48593,0 z"
         style="font-style:normal;font-variant:normal;font-weight:normal;font-stretch:normal;font-size:4.58611107px;line-height:1;font-family:Hack;-inkscape-font-specification:Hack;fill:#ffffff;fill-opacity:1;stroke-width:0.26458332"
         id="path3563" />
      <path
         d="m 44.309396,121.44263 0,0.7121 0.848699,0 0,0.32022 -0.848699,0 0,1.3615 q 0,0.30679 0.08286,0.39412 0.08509,0.0873 0.342614,0.0873 l 0.42323,0 0,0.34486 -0.42323,0 q -0.476973,0 -0.658357,-0.17691 -0.181385,-0.17914 -0.181385,-0.6494 l 0,-1.3615 -0.302307,0 0,-0.32022 0.302307,0 0,-0.7121 0.414273,0 z"
         style="font-style:normal;font-variant:normal;font-weight:normal;font-stretch:normal;font-size:4.58611107px;line-height:1;font-family:Hack;-inkscape-font-specification:Hack;fill:#ffffff;fill-opacity:1;stroke-width:0.26458332"
         id="path3565" />
      <path
         d="m 46.091889,121.31946 0,1.24282 -0.380683,0 0,-1.24282 0.380683,0 z m 0.84646,0 0,1.24282 -0.380683,0 0,-1.24282 0.380683,0 z"
         style="font-style:normal;font-variant:normal;font-weight:normal;font-stretch:normal;font-size:4.58611107px;line-height:1;font-family:Hack;-inkscape-font-specification:Hack;fill:#ffffff;fill-opacity:1;stroke-width:0.26458332"
         id="path3567" />
      <path
         d="m 47.921407,124.09397 0.472495,0 0,0.56879 -0.472495,0 0,-0.56879 z m 0,-1.80264 0.472495,0 0,0.56878 -0.472495,0 0,-0.56878 z"
         style="font-style:normal;font-variant:normal;font-weight:normal;font-stretch:normal;font-size:4.58611107px;line-height:1;font-family:Hack;-inkscape-font-specification:Hack;fill:#ffffff;fill-opacity:1;stroke-width:0.26458332"
         id="path3569" />
      <path
         d="m 51.215436,121.31946 0,1.24282 -0.380683,0 0,-1.24282 0.380683,0 z m 0.84646,0 0,1.24282 -0.380683,0 0,-1.24282 0.380683,0 z"
         style="font-style:normal;font-variant:normal;font-weight:normal;font-stretch:normal;font-size:4.58611107px;line-height:1;font-family:Hack;-inkscape-font-specification:Hack;fill:#ffffff;fill-opacity:1;stroke-width:0.26458332"
         id="path3571" />
      <path
         d="m 52.95762,121.31946 0.452342,0 0,3.3433 -0.452342,0 0,-3.3433 z"
         style="font-style:normal;font-variant:normal;font-weight:normal;font-stretch:normal;font-size:4.58611107px;line-height:1;font-family:Hack;-inkscape-font-specification:Hack;fill:#ffffff;fill-opacity:1;stroke-width:0.26458332"
         id="path3573" />
      <path
         d="m 54.681889,121.31946 0,1.24282 -0.380683,0 0,-1.24282 0.380683,0 z"
         style="font-style:normal;font-variant:normal;font-weight:normal;font-stretch:normal;font-size:4.58611107px;line-height:1;font-family:Hack;-inkscape-font-specification:Hack;fill:#ffffff;fill-opacity:1;stroke-width:0.26458332"
         id="path3575" />
      <path
         d="m 57.507901,122.63618 q 0.154512,-0.27767 0.369486,-0.40979 0.214974,-0.13212 0.506085,-0.13212 0.391879,0 0.604614,0.27543 0.212735,0.2732 0.212735,0.77928 l 0,1.51378 -0.414273,0 0,-1.50034 q 0,-0.36053 -0.127641,-0.5352 -0.127641,-0.17466 -0.38964,-0.17466 -0.320222,0 -0.506085,0.21273 -0.185862,0.21274 -0.185862,0.57998 l 0,1.41749 -0.414273,0 0,-1.50034 q 0,-0.36277 -0.127641,-0.5352 -0.127641,-0.17466 -0.394119,-0.17466 -0.315743,0 -0.501606,0.21497 -0.185863,0.21274 -0.185863,0.57774 l 0,1.41749 -0.414272,0 0,-2.50803 0.414272,0 0,0.38964 q 0.141077,-0.23065 0.338136,-0.34038 0.19706,-0.10972 0.468017,-0.10972 0.273196,0 0.463537,0.13883 0.192581,0.13884 0.284393,0.40308 z"
         style="font-style:normal;font-variant:normal;font-weight:normal;font-stretch:normal;font-size:4.58611107px;line-height:1;font-family:Hack;-inkscape-font-specification:Hack;fill:#ffffff;fill-opacity:1;stroke-width:0.26458332"
         id="path3577" />
      <path
         d="m 62.62473,123.40203 q -0.499367,0 -0.691948,0.1142 -0.192581,0.11421 -0.192581,0.38964 0,0.21945 0.143316,0.34933 0.145556,0.12764 0.394119,0.12764 0.342615,0 0.548632,-0.24184 0.208256,-0.24409 0.208256,-0.64716 l 0,-0.0918 -0.409794,0 z m 0.821827,-0.17019 0,1.43092 -0.412033,0 0,-0.38069 q -0.141077,0.22841 -0.351572,0.33814 -0.210496,0.10749 -0.515042,0.10749 -0.385162,0 -0.613572,-0.21498 -0.22617,-0.21721 -0.22617,-0.57998 0,-0.42323 0.282153,-0.6382 0.284393,-0.21498 0.84646,-0.21498 l 0.577743,0 0,-0.0403 q 0,-0.2844 -0.188103,-0.43891 -0.185862,-0.15675 -0.523999,-0.15675 -0.214974,0 -0.418751,0.0515 -0.203777,0.0515 -0.39188,0.15452 l 0,-0.38069 q 0.226171,-0.0873 0.438906,-0.12988 0.212734,-0.0448 0.414272,-0.0448 0.544153,0 0.812871,0.28215 0.268717,0.28215 0.268717,0.85542 z"
         style="font-style:normal;font-variant:normal;font-weight:normal;font-stretch:normal;font-size:4.58611107px;line-height:1;font-family:Hack;-inkscape-font-specification:Hack;fill:#ffffff;fill-opacity:1;stroke-width:0.26458332"
         id="path3579" />
      <path
         d="m 65.567184,121.17839 0,0.34261 -0.394119,0 q -0.221692,0 -0.309025,0.0896 -0.08509,0.0896 -0.08509,0.32246 l 0,0.22169 0.678512,0 0,0.32022 -0.678512,0 0,2.18781 -0.414273,0 0,-2.18781 -0.394118,0 0,-0.32022 0.394118,0 0,-0.17467 q 0,-0.41875 0.194821,-0.60909 0.19482,-0.19258 0.61805,-0.19258 l 0.38964,0 z"
         style="font-style:normal;font-variant:normal;font-weight:normal;font-stretch:normal;font-size:4.58611107px;line-height:1;font-family:Hack;-inkscape-font-specification:Hack;fill:#ffffff;fill-opacity:1;stroke-width:0.26458332"
         id="path3581" />
      <path
         d="m 67.363112,122.53989 q -0.06942,-0.0403 -0.152273,-0.0582 -0.08062,-0.0202 -0.179145,-0.0202 -0.349333,0 -0.537435,0.22841 -0.185863,0.22617 -0.185863,0.65164 l 0,1.3212 -0.414272,0 0,-2.50803 0.414272,0 0,0.38964 q 0.12988,-0.22841 0.338136,-0.33814 0.208256,-0.11196 0.506085,-0.11196 0.04255,0 0.09405,0.007 0.0515,0.004 0.114205,0.0157 l 0.0022,0.42323 z"
         style="font-style:normal;font-variant:normal;font-weight:normal;font-stretch:normal;font-size:4.58611107px;line-height:1;font-family:Hack;-inkscape-font-specification:Hack;fill:#ffffff;fill-opacity:1;stroke-width:0.26458332"
         id="path3583" />
      <path
         d="m 68.939589,123.40203 q -0.499367,0 -0.691948,0.1142 -0.19258,0.11421 -0.19258,0.38964 0,0.21945 0.143316,0.34933 0.145555,0.12764 0.394119,0.12764 0.342614,0 0.548631,-0.24184 0.208256,-0.24409 0.208256,-0.64716 l 0,-0.0918 -0.409794,0 z m 0.821827,-0.17019 0,1.43092 -0.412033,0 0,-0.38069 q -0.141077,0.22841 -0.351572,0.33814 -0.210495,0.10749 -0.515042,0.10749 -0.385161,0 -0.613571,-0.21498 -0.226171,-0.21721 -0.226171,-0.57998 0,-0.42323 0.282154,-0.6382 0.284392,-0.21498 0.84646,-0.21498 l 0.577742,0 0,-0.0403 q 0,-0.2844 -0.188102,-0.43891 -0.185863,-0.15675 -0.523999,-0.15675 -0.214974,0 -0.418752,0.0515 -0.203777,0.0515 -0.391879,0.15452 l 0,-0.38069 q 0.22617,-0.0873 0.438905,-0.12988 0.212735,-0.0448 0.414273,-0.0448 0.544153,0 0.81287,0.28215 0.268717,0.28215 0.268717,0.85542 z"
         style="font-style:normal;font-variant:normal;font-weight:normal;font-stretch:normal;font-size:4.58611107px;line-height:1;font-family:Hack;-inkscape-font-specification:Hack;fill:#ffffff;fill-opacity:1;stroke-width:0.26458332"
         id="path3585" />
      <path
         d="m 70.612355,122.15473 0.412034,0 0,2.50803 -0.412034,0 0,-2.50803 z m 0,-0.97634 0.412034,0 0,0.52176 -0.412034,0 0,-0.52176 z"
         style="font-style:normal;font-variant:normal;font-weight:normal;font-stretch:normal;font-size:4.58611107px;line-height:1;font-family:Hack;-inkscape-font-specification:Hack;fill:#ffffff;fill-opacity:1;stroke-width:0.26458332"
         id="path3587" />
      <path
         d="m 73.534659,122.53541 0,-1.35702 0.412033,0 0,3.48437 -0.412033,0 0,-0.37621 q -0.12988,0.22393 -0.329179,0.33366 -0.197059,0.10749 -0.474734,0.10749 -0.45458,0 -0.741212,-0.36277 -0.284393,-0.36277 -0.284393,-0.95395 0,-0.59118 0.284393,-0.95394 0.286632,-0.36277 0.741212,-0.36277 0.277675,0 0.474734,0.10972 0.199299,0.10749 0.329179,0.33142 z m -1.404049,0.87557 q 0,0.45458 0.185863,0.71434 0.188103,0.25752 0.515042,0.25752 0.32694,0 0.515042,-0.25752 0.188102,-0.25976 0.188102,-0.71434 0,-0.45458 -0.188102,-0.7121 -0.188102,-0.25976 -0.515042,-0.25976 -0.326939,0 -0.515042,0.25976 -0.185863,0.25752 -0.185863,0.7121 z"
         style="font-style:normal;font-variant:normal;font-weight:normal;font-stretch:normal;font-size:4.58611107px;line-height:1;font-family:Hack;-inkscape-font-specification:Hack;fill:#ffffff;fill-opacity:1;stroke-width:0.26458332"
         id="path3589" />
      <path
         d="m 76.273336,121.31946 0.452341,0 0,3.3433 -0.452341,0 0,-3.3433 z"
         style="font-style:normal;font-variant:normal;font-weight:normal;font-stretch:normal;font-size:4.58611107px;line-height:1;font-family:Hack;-inkscape-font-specification:Hack;fill:#ffffff;fill-opacity:1;stroke-width:0.26458332"
         id="path3591" />
      <path
         d="m 80.872884,122.25102 0,0.38516 q -0.174667,-0.0963 -0.351572,-0.14332 -0.174667,-0.0493 -0.353812,-0.0493 -0.400837,0 -0.622528,0.25528 -0.221692,0.25304 -0.221692,0.7121 0,0.45906 0.221692,0.71434 0.221691,0.25305 0.622528,0.25305 0.179145,0 0.353812,-0.047 0.176905,-0.0493 0.351572,-0.14556 l 0,0.38069 q -0.172427,0.0806 -0.35829,0.12092 -0.183624,0.0403 -0.39188,0.0403 -0.566546,0 -0.900203,-0.35605 -0.333658,-0.35605 -0.333658,-0.96067 0,-0.61357 0.335897,-0.96514 0.338136,-0.35157 0.924836,-0.35157 0.190341,0 0.371726,0.0403 0.181384,0.0381 0.351572,0.11645 z"
         style="font-style:normal;font-variant:normal;font-weight:normal;font-stretch:normal;font-size:4.58611107px;line-height:1;font-family:Hack;-inkscape-font-specification:Hack;fill:#ffffff;fill-opacity:1;stroke-width:0.26458332"
         id="path3593" />
      <path
         d="m 82.733752,123.40203 q -0.499367,0 -0.691948,0.1142 -0.192581,0.11421 -0.192581,0.38964 0,0.21945 0.143316,0.34933 0.145556,0.12764 0.394119,0.12764 0.342615,0 0.548632,-0.24184 0.208256,-0.24409 0.208256,-0.64716 l 0,-0.0918 -0.409794,0 z m 0.821827,-0.17019 0,1.43092 -0.412033,0 0,-0.38069 q -0.141077,0.22841 -0.351572,0.33814 -0.210496,0.10749 -0.515042,0.10749 -0.385162,0 -0.613571,-0.21498 -0.226171,-0.21721 -0.226171,-0.57998 0,-0.42323 0.282153,-0.6382 0.284393,-0.21498 0.84646,-0.21498 l 0.577743,0 0,-0.0403 q 0,-0.2844 -0.188102,-0.43891 -0.185863,-0.15675 -0.523999,-0.15675 -0.214974,0 -0.418752,0.0515 -0.203777,0.0515 -0.391879,0.15452 l 0,-0.38069 q 0.22617,-0.0873 0.438905,-0.12988 0.212734,-0.0448 0.414272,-0.0448 0.544153,0 0.812871,0.28215 0.268717,0.28215 0.268717,0.85542 z"
         style="font-style:normal;font-variant:normal;font-weight:normal;font-stretch:normal;font-size:4.58611107px;line-height:1;font-family:Hack;-inkscape-font-specification:Hack;fill:#ffffff;fill-opacity:1;stroke-width:0.26458332"
         id="path3595" />
      <path
         d="m 86.491318,123.14898 0,1.51378 -0.412034,0 0,-1.50034 q 0,-0.35605 -0.138837,-0.53296 -0.138837,-0.1769 -0.416512,-0.1769 -0.333658,0 -0.526238,0.21273 -0.192581,0.21274 -0.192581,0.57998 l 0,1.41749 -0.414273,0 0,-2.50803 0.414273,0 0,0.38964 q 0.147794,-0.22617 0.347093,-0.33814 0.201538,-0.11196 0.463538,-0.11196 0.432187,0 0.653879,0.26871 0.221692,0.26648 0.221692,0.786 z"
         style="font-style:normal;font-variant:normal;font-weight:normal;font-stretch:normal;font-size:4.58611107px;line-height:1;font-family:Hack;-inkscape-font-specification:Hack;fill:#ffffff;fill-opacity:1;stroke-width:0.26458332"
         id="path3597" />
      <path
         d="m 87.725179,121.44263 0,0.7121 0.848699,0 0,0.32022 -0.848699,0 0,1.3615 q 0,0.30679 0.08286,0.39412 0.08509,0.0873 0.342614,0.0873 l 0.42323,0 0,0.34486 -0.42323,0 q -0.476973,0 -0.658357,-0.17691 -0.181385,-0.17914 -0.181385,-0.6494 l 0,-1.3615 -0.302307,0 0,-0.32022 0.302307,0 0,-0.7121 0.414273,0 z"
         style="font-style:normal;font-variant:normal;font-weight:normal;font-stretch:normal;font-size:4.58611107px;line-height:1;font-family:Hack;-inkscape-font-specification:Hack;fill:#ffffff;fill-opacity:1;stroke-width:0.26458332"
         id="path3599" />
      <path
         d="m 92.228434,122.53541 0,-1.35702 0.412034,0 0,3.48437 -0.412034,0 0,-0.37621 q -0.12988,0.22393 -0.329179,0.33366 -0.197059,0.10749 -0.474734,0.10749 -0.45458,0 -0.741212,-0.36277 -0.284393,-0.36277 -0.284393,-0.95395 0,-0.59118 0.284393,-0.95394 0.286632,-0.36277 0.741212,-0.36277 0.277675,0 0.474734,0.10972 0.199299,0.10749 0.329179,0.33142 z m -1.404048,0.87557 q 0,0.45458 0.185862,0.71434 0.188103,0.25752 0.515042,0.25752 0.32694,0 0.515042,-0.25752 0.188102,-0.25976 0.188102,-0.71434 0,-0.45458 -0.188102,-0.7121 -0.188102,-0.25976 -0.515042,-0.25976 -0.326939,0 -0.515042,0.25976 -0.185862,0.25752 -0.185862,0.7121 z"
         style="font-style:normal;font-variant:normal;font-weight:normal;font-stretch:normal;font-size:4.58611107px;line-height:1;font-family:Hack;-inkscape-font-specification:Hack;fill:#ffffff;fill-opacity:1;stroke-width:0.26458332"
         id="path3601" />
      <path
         d="m 94.461029,122.4436 q -0.331418,0 -0.523999,0.25976 -0.192581,0.25752 -0.192581,0.70762 0,0.4501 0.190341,0.70986 0.192581,0.25753 0.526239,0.25753 0.329179,0 0.521759,-0.25976 0.192581,-0.25977 0.192581,-0.70763 0,-0.44562 -0.192581,-0.70538 -0.19258,-0.262 -0.521759,-0.262 z m 0,-0.34933 q 0.537435,0 0.84422,0.34933 0.306786,0.34933 0.306786,0.96738 0,0.61581 -0.306786,0.96739 -0.306785,0.34933 -0.84422,0.34933 -0.539674,0 -0.84646,-0.34933 -0.304547,-0.35158 -0.304547,-0.96739 0,-0.61805 0.304547,-0.96738 0.306786,-0.34933 0.84646,-0.34933 z"
         style="font-style:normal;font-variant:normal;font-weight:normal;font-stretch:normal;font-size:4.58611107px;line-height:1;font-family:Hack;-inkscape-font-specification:Hack;fill:#ffffff;fill-opacity:1;stroke-width:0.26458332"
         id="path3603" />
      <path
         d="m 98.160371,121.44263 0,0.7121 0.848699,0 0,0.32022 -0.848699,0 0,1.3615 q 0,0.30679 0.08286,0.39412 0.08509,0.0873 0.342614,0.0873 l 0.42323,0 0,0.34486 -0.42323,0 q -0.476973,0 -0.658357,-0.17691 -0.181385,-0.17914 -0.181385,-0.6494 l 0,-1.3615 -0.302307,0 0,-0.32022 0.302307,0 0,-0.7121 0.414273,0 z"
         style="font-style:normal;font-variant:normal;font-weight:normal;font-stretch:normal;font-size:4.58611107px;line-height:1;font-family:Hack;-inkscape-font-specification:Hack;fill:#ffffff;fill-opacity:1;stroke-width:0.26458332"
         id="path3605" />
      <path
         d="m 101.63802,123.14898 0,1.51378 -0.41203,0 0,-1.50034 q 0,-0.35605 -0.13884,-0.53296 -0.13883,-0.1769 -0.41651,-0.1769 -0.33366,0 -0.52624,0.21273 -0.192579,0.21274 -0.192579,0.57998 l 0,1.41749 -0.414272,0 0,-3.48437 0.414272,0 0,1.36598 q 0.147799,-0.22617 0.347089,-0.33814 0.20154,-0.11196 0.46354,-0.11196 0.43219,0 0.65388,0.26871 0.22169,0.26648 0.22169,0.786 z"
         style="font-style:normal;font-variant:normal;font-weight:normal;font-stretch:normal;font-size:4.58611107px;line-height:1;font-family:Hack;-inkscape-font-specification:Hack;fill:#ffffff;fill-opacity:1;stroke-width:0.26458332"
         id="path3607" />
      <path
         d="m 103.60414,123.40203 q -0.49936,0 -0.69194,0.1142 -0.19258,0.11421 -0.19258,0.38964 0,0.21945 0.14331,0.34933 0.14556,0.12764 0.39412,0.12764 0.34261,0 0.54863,-0.24184 0.20826,-0.24409 0.20826,-0.64716 l 0,-0.0918 -0.4098,0 z m 0.82183,-0.17019 0,1.43092 -0.41203,0 0,-0.38069 q -0.14108,0.22841 -0.35157,0.33814 -0.2105,0.10749 -0.51505,0.10749 -0.38516,0 -0.61357,-0.21498 -0.22617,-0.21721 -0.22617,-0.57998 0,-0.42323 0.28216,-0.6382 0.28439,-0.21498 0.84646,-0.21498 l 0.57774,0 0,-0.0403 q 0,-0.2844 -0.1881,-0.43891 -0.18587,-0.15675 -0.524,-0.15675 -0.21498,0 -0.41875,0.0515 -0.20378,0.0515 -0.39188,0.15452 l 0,-0.38069 q 0.22617,-0.0873 0.4389,-0.12988 0.21274,-0.0448 0.41427,-0.0448 0.54416,0 0.81287,0.28215 0.26872,0.28215 0.26872,0.85542 z"
         style="font-style:normal;font-variant:normal;font-weight:normal;font-stretch:normal;font-size:4.58611107px;line-height:1;font-family:Hack;-inkscape-font-specification:Hack;fill:#ffffff;fill-opacity:1;stroke-width:0.26458332"
         id="path3609" />
      <path
         d="m 105.68446,121.44263 0,0.7121 0.8487,0 0,0.32022 -0.8487,0 0,1.3615 q 0,0.30679 0.0828,0.39412 0.0851,0.0873 0.34262,0.0873 l 0.42323,0 0,0.34486 -0.42323,0 q -0.47698,0 -0.65836,-0.17691 -0.18139,-0.17914 -0.18139,-0.6494 l 0,-1.3615 -0.3023,0 0,-0.32022 0.3023,0 0,-0.7121 0.41428,0 z"
         style="font-style:normal;font-variant:normal;font-weight:normal;font-stretch:normal;font-size:4.58611107px;line-height:1;font-family:Hack;-inkscape-font-specification:Hack;fill:#ffffff;fill-opacity:1;stroke-width:0.26458332"
         id="path3611" />
      <path
         d="m 109.0076,121.69119 0,2.59984 0.54639,0 q 0.69195,0 1.01217,-0.3135 0.32246,-0.31351 0.32246,-0.98978 0,-0.67179 -0.32246,-0.98306 -0.32022,-0.3135 -1.01217,-0.3135 l -0.54639,0 z m -0.45234,-0.37173 0.92932,0 q 0.97186,0 1.42644,0.40532 0.45458,0.40308 0.45458,1.26297 0,0.86438 -0.45682,1.26969 -0.45682,0.40532 -1.4242,0.40532 l -0.92932,0 0,-3.3433 z"
         style="font-style:normal;font-variant:normal;font-weight:normal;font-stretch:normal;font-size:4.58611107px;line-height:1;font-family:Hack;-inkscape-font-specification:Hack;fill:#ffffff;fill-opacity:1;stroke-width:0.26458332"
         id="path3613" />
      <path
         d="m 113.20631,123.40203 q -0.49937,0 -0.69195,0.1142 -0.19258,0.11421 -0.19258,0.38964 0,0.21945 0.14332,0.34933 0.14555,0.12764 0.39412,0.12764 0.34261,0 0.54863,-0.24184 0.20825,-0.24409 0.20825,-0.64716 l 0,-0.0918 -0.40979,0 z m 0.82183,-0.17019 0,1.43092 -0.41204,0 0,-0.38069 q -0.14107,0.22841 -0.35157,0.33814 -0.21049,0.10749 -0.51504,0.10749 -0.38516,0 -0.61357,-0.21498 -0.22617,-0.21721 -0.22617,-0.57998 0,-0.42323 0.28215,-0.6382 0.28439,-0.21498 0.84646,-0.21498 l 0.57774,0 0,-0.0403 q 0,-0.2844 -0.1881,-0.43891 -0.18586,-0.15675 -0.524,-0.15675 -0.21497,0 -0.41875,0.0515 -0.20378,0.0515 -0.39188,0.15452 l 0,-0.38069 q 0.22617,-0.0873 0.43891,-0.12988 0.21273,-0.0448 0.41427,-0.0448 0.54415,0 0.81287,0.28215 0.26872,0.28215 0.26872,0.85542 z"
         style="font-style:normal;font-variant:normal;font-weight:normal;font-stretch:normal;font-size:4.58611107px;line-height:1;font-family:Hack;-inkscape-font-specification:Hack;fill:#ffffff;fill-opacity:1;stroke-width:0.26458332"
         id="path3615" />
      <path
         d="m 114.58349,122.15473 0.43666,0 0.78376,2.10495 0.78376,-2.10495 0.43667,0 -0.94051,2.50803 -0.55983,0 -0.94051,-2.50803 z"
         style="font-style:normal;font-variant:normal;font-weight:normal;font-stretch:normal;font-size:4.58611107px;line-height:1;font-family:Hack;-inkscape-font-specification:Hack;fill:#ffffff;fill-opacity:1;stroke-width:0.26458332"
         id="path3617" />
      <path
         d="m 119.73839,123.30573 0,0.20154 -1.89446,0 q 0.0269,0.42547 0.25528,0.6494 0.23065,0.2217 0.64044,0.2217 0.23737,0 0.45906,-0.0582 0.22393,-0.0582 0.44339,-0.17466 l 0,0.38964 q -0.2217,0.094 -0.45458,0.14331 -0.23289,0.0493 -0.4725,0.0493 -0.60013,0 -0.95171,-0.34933 -0.34933,-0.34934 -0.34933,-0.94499 0,-0.61582 0.33142,-0.97634 0.33366,-0.36277 0.89796,-0.36277 0.50609,0 0.79944,0.32694 0.29559,0.3247 0.29559,0.88452 z m -0.41204,-0.12092 q -0.004,-0.33813 -0.19034,-0.53967 -0.18362,-0.20154 -0.48817,-0.20154 -0.34485,0 -0.55311,0.19482 -0.20602,0.19482 -0.23737,0.54863 l 1.46899,-0.002 z"
         style="font-style:normal;font-variant:normal;font-weight:normal;font-stretch:normal;font-size:4.58611107px;line-height:1;font-family:Hack;-inkscape-font-specification:Hack;fill:#ffffff;fill-opacity:1;stroke-width:0.26458332"
         id="path3619" />
      <path
         d="m 120.8043,121.31946 0,1.24282 -0.38068,0 0,-1.24282 0.38068,0 z m 0.84646,0 0,1.24282 -0.38068,0 0,-1.24282 0.38068,0 z"
         style="font-style:normal;font-variant:normal;font-weight:normal;font-stretch:normal;font-size:4.58611107px;line-height:1;font-family:Hack;-inkscape-font-specification:Hack;fill:#ffffff;fill-opacity:1;stroke-width:0.26458332"
         id="path3621" />
      <path
         d="m 31.753573,129.67434 0.156752,0 q 0.313504,0 0.407555,-0.0963 0.09629,-0.0963 0.09629,-0.41651 l 0,-0.55535 q 0,-0.34934 0.100769,-0.50833 0.100769,-0.15899 0.349333,-0.21945 -0.248564,-0.056 -0.349333,-0.21497 -0.100769,-0.159 -0.100769,-0.51057 l 0,-0.55535 q 0,-0.31798 -0.09629,-0.41427 -0.09405,-0.0985 -0.407555,-0.0985 l -0.156752,0 0,-0.32022 0.141077,0 q 0.557589,0 0.743451,0.16571 0.188103,0.16347 0.188103,0.65836 l 0,0.53743 q 0,0.33366 0.120922,0.46354 0.120923,0.12764 0.438906,0.12764 l 0.138837,0 0,0.32022 -0.138837,0 q -0.317983,0 -0.438906,0.12988 -0.120922,0.12988 -0.120922,0.46802 l 0,0.53519 q 0,0.49489 -0.188103,0.6606 -0.185862,0.16571 -0.743451,0.16571 l -0.141077,0 0,-0.32246 z"
         style="font-style:normal;font-variant:normal;font-weight:normal;font-stretch:normal;font-size:4.58611107px;line-height:1;font-family:Hack;-inkscape-font-specification:Hack;fill:#ffffff;fill-opacity:1;stroke-width:0.26458332"
         id="path3623" />
      <path
         d="m 32.729913,139.09512 -0.223931,0 -0.0022,-0.67403 q -0.235128,-0.004 -0.470256,-0.0537 -0.235128,-0.0515 -0.472495,-0.15228 l 0,-0.40307 q 0.22841,0.14331 0.461299,0.21721 0.235127,0.0717 0.483691,0.0739 l 0,-1.02113 q -0.494888,-0.0806 -0.721058,-0.27319 -0.223932,-0.19258 -0.223932,-0.52848 0,-0.36501 0.244085,-0.5755 0.244085,-0.2105 0.700905,-0.24185 l 0,-0.52624 0.223931,0 0,0.51952 q 0.208256,0.009 0.403076,0.0448 0.194821,0.0336 0.380683,0.0941 l 0,0.39188 q -0.185862,-0.0941 -0.382922,-0.14556 -0.19482,-0.0515 -0.400837,-0.0605 l 0,0.95619 q 0.508324,0.0784 0.74793,0.27991 0.239607,0.20154 0.239607,0.55087 0,0.37845 -0.255282,0.5979 -0.253042,0.21721 -0.732255,0.2508 l 0,0.67851 z m -0.223931,-2.3983 0,-0.91812 q -0.25976,0.0291 -0.396358,0.1478 -0.136598,0.11868 -0.136598,0.31574 0,0.19258 0.125401,0.30007 0.127641,0.10749 0.407555,0.15451 z m 0.223931,0.42995 0,0.96962 q 0.284393,-0.0381 0.427709,-0.16123 0.145555,-0.12316 0.145555,-0.3247 0,-0.19706 -0.138837,-0.3135 -0.136598,-0.11645 -0.434427,-0.17019 z"
         style="font-style:normal;font-variant:normal;font-weight:normal;font-stretch:normal;font-size:4.58611107px;line-height:1;font-family:Hack;-inkscape-font-specification:Hack;fill:#ffffff;fill-opacity:1;stroke-width:0.26458332"
         id="path3625" />
      <path
         d="m 36.650949,134.91657 0,4.58611 -0.508324,0 0,-4.58611 0.508324,0 z"
         style="font-style:normal;font-variant:normal;font-weight:bold;font-stretch:normal;font-family:Hack;-inkscape-font-specification:'Hack Bold'"
         id="path3627" />
    </g>
    <g
       style="font-style:normal;font-weight:normal;font-size:10.58333302px;line-height:1.25;font-family:sans-serif;letter-spacing:0px;word-spacing:0px;fill:#000000;fill-opacity:1;stroke:none;stroke-width:0.26458332"
       id="text5274">
      <path
         d="m 93.808879,91.690965 q 0,-0.349677 -0.144694,-0.54777 -0.142971,-0.199815 -0.394463,-0.199815 -0.251492,0 -0.396186,0.199815 -0.142971,0.198093 -0.142971,0.54777 0,0.349678 0.142971,0.549493 0.144694,0.198093 0.396186,0.198093 0.251492,0 0.394463,-0.198093 0.144694,-0.199815 0.144694,-0.549493 z m -1.078314,-0.673516 q 0.09991,-0.172254 0.251491,-0.254937 0.153307,-0.08441 0.365181,-0.08441 0.351399,0 0.570163,0.279053 0.220486,0.279053 0.220486,0.733805 0,0.454753 -0.220486,0.733806 -0.218764,0.279053 -0.570163,0.279053 -0.211874,0 -0.365181,-0.08268 -0.151584,-0.0844 -0.251491,-0.256659 l 0,0.289388 -0.318672,0 0,-2.680285 0.318672,0 0,1.043864 z"
         style="font-size:3.52777767px;fill:#999999;stroke-width:0.26458332"
         id="path3630" />
      <path
         d="m 95.54004,91.684075 q -0.384128,0 -0.532267,0.08785 -0.14814,0.08785 -0.14814,0.299724 0,0.168809 0.110243,0.268717 0.111966,0.09819 0.303169,0.09819 0.26355,0 0.422024,-0.186035 0.160197,-0.187758 0.160197,-0.497816 l 0,-0.07062 -0.315226,0 z m 0.632175,-0.130913 0,1.100708 -0.316949,0 0,-0.292833 q -0.108521,0.175699 -0.27044,0.260104 -0.16192,0.08268 -0.396186,0.08268 -0.296278,0 -0.471978,-0.165365 -0.173977,-0.167087 -0.173977,-0.44614 0,-0.325561 0.217041,-0.490926 0.218763,-0.165365 0.651123,-0.165365 l 0.444417,0 0,-0.031 q 0,-0.218764 -0.144694,-0.33762 -0.142971,-0.120578 -0.403076,-0.120578 -0.165365,0 -0.322117,0.03962 -0.156751,0.03962 -0.301445,0.118856 l 0,-0.292833 q 0.173977,-0.06718 0.337619,-0.09991 0.163642,-0.03445 0.318671,-0.03445 0.418579,0 0.625285,0.217041 0.206706,0.217041 0.206706,0.658014 z"
         style="font-size:3.52777767px;fill:#999999;stroke-width:0.26458332"
         id="path3632" />
      <path
         d="m 98.056682,90.78146 0,0.299724 q -0.134359,-0.0689 -0.279053,-0.103353 -0.144694,-0.03445 -0.299723,-0.03445 -0.235989,0 -0.354845,0.07235 -0.117133,0.07235 -0.117133,0.217041 0,0.110243 0.08441,0.173977 0.08441,0.06201 0.339342,0.118856 l 0.10852,0.02412 q 0.33762,0.07235 0.478869,0.204983 0.142971,0.130913 0.142971,0.366902 0,0.268718 -0.213596,0.42547 -0.211873,0.156752 -0.583944,0.156752 -0.155029,0 -0.323839,-0.03101 -0.167087,-0.02928 -0.353122,-0.08957 l 0,-0.327284 q 0.1757,0.0913 0.346232,0.137804 0.170532,0.04479 0.33762,0.04479 0.223931,0 0.344509,-0.07579 0.120578,-0.07751 0.120578,-0.217041 0,-0.129191 -0.08785,-0.198093 -0.08613,-0.0689 -0.380684,-0.132636 l -0.110243,-0.02584 q -0.294555,-0.06201 -0.425469,-0.189481 -0.130913,-0.129191 -0.130913,-0.353122 0,-0.272162 0.192925,-0.420301 0.192925,-0.14814 0.54777,-0.14814 0.1757,0 0.330729,0.02584 0.155029,0.02584 0.285943,0.07751 z"
         style="font-size:3.52777767px;fill:#999999;stroke-width:0.26458332"
         id="path3634" />
      <path
         d="m 100.27016,91.489427 0,1.164443 -0.316953,0 0,-1.154107 q 0,-0.273885 -0.106798,-0.409967 -0.106798,-0.136081 -0.320394,-0.136081 -0.25666,0 -0.404799,0.163642 -0.148139,0.163642 -0.148139,0.44614 l 0,1.090373 -0.318671,0 0,-2.680285 0.318671,0 0,1.050755 q 0.113688,-0.173978 0.266995,-0.260105 0.155029,-0.08613 0.356567,-0.08613 0.332452,0 0.502981,0.206706 0.17054,0.204983 0.17054,0.604614 z"
         style="font-size:3.52777767px;fill:#999999;stroke-width:0.26458332"
         id="path3636" />
    </g>
  </g>
</svg>
