<?xml version="1.0" encoding="UTF-8" standalone="no"?>
<!-- Created with Inkscape (http://www.inkscape.org/) -->

<svg
   xmlns:dc="http://purl.org/dc/elements/1.1/"
   xmlns:cc="http://creativecommons.org/ns#"
   xmlns:rdf="http://www.w3.org/1999/02/22-rdf-syntax-ns#"
   xmlns:svg="http://www.w3.org/2000/svg"
   xmlns="http://www.w3.org/2000/svg"
   xmlns:sodipodi="http://sodipodi.sourceforge.net/DTD/sodipodi-0.dtd"
   xmlns:inkscape="http://www.inkscape.org/namespaces/inkscape"
   width="139.5489mm"
   height="78.779297mm"
   viewBox="0 0 139.5489 78.779297"
   version="1.1"
   id="svg4645"
   sodipodi:docname="terminal.svg"
   inkscape:version="0.91 r13725">
  <defs
     id="defs4639" />
  <sodipodi:namedview
     id="base"
     pagecolor="#ffffff"
     bordercolor="#666666"
     borderopacity="1.0"
     inkscape:pageopacity="0.0"
     inkscape:pageshadow="2"
     inkscape:zoom="1.0018074"
     inkscape:cx="268.57376"
     inkscape:cy="151.92811"
     inkscape:document-units="mm"
     inkscape:current-layer="layer1"
     showgrid="false"
     fit-margin-top="0"
     fit-margin-left="0"
     fit-margin-right="0"
     fit-margin-bottom="0"
     inkscape:window-width="1366"
     inkscape:window-height="704"
     inkscape:window-x="0"
     inkscape:window-y="27"
     inkscape:window-maximized="1" />
  <metadata
     id="metadata4642">
    <rdf:RDF>
      <cc:Work
         rdf:about="">
        <dc:format>image/svg+xml</dc:format>
        <dc:type
           rdf:resource="http://purl.org/dc/dcmitype/StillImage" />
        <dc:title></dc:title>
      </cc:Work>
    </rdf:RDF>
  </metadata>
  <g
     inkscape:label="Layer 1"
     inkscape:groupmode="layer"
     id="layer1"
     transform="translate(-26.566572,-85.978363)">
    <rect
       style="fill:#000000;fill-opacity:1;stroke:none;stroke-width:3.43192196;stroke-miterlimit:4;stroke-dasharray:none;stroke-opacity:1"
       id="rect5190"
       width="139.5489"
       height="78.779297"
       x="26.566572"
       y="85.978363"
       rx="1.8520833"
       ry="1.8520833" />
    <g
       id="g5251"
       transform="translate(1.0583333)">
      <circle
         r="2.3769538"
         cy="91.952209"
         cx="32.274872"
         id="path5194"
         style="fill:#d9515d;fill-opacity:1;stroke:none;stroke-width:5.99999952;stroke-miterlimit:4;stroke-dasharray:none;stroke-opacity:1" />
      <circle
         r="2.3769538"
         cy="91.952209"
         cx="38.889454"
         id="path5194-3"
         style="fill:#f4c025;fill-opacity:1;stroke:none;stroke-width:5.99999952;stroke-miterlimit:4;stroke-dasharray:none;stroke-opacity:1" />
      <circle
         r="2.3769538"
         cy="91.952209"
         cx="45.504036"
         id="path5194-3-6"
         style="fill:#3ec930;fill-opacity:1;stroke:none;stroke-width:5.99999952;stroke-miterlimit:4;stroke-dasharray:none;stroke-opacity:1" />
    </g>
    <g
       style="font-style:normal;font-weight:normal;font-size:10.58333302px;line-height:1.25;font-family:sans-serif;letter-spacing:0px;word-spacing:0px;fill:#000000;fill-opacity:1;stroke:none;stroke-width:0.26458332"
       id="text5274">
      <path
         d="m 93.808879,91.690965 q 0,-0.349677 -0.144694,-0.54777 -0.142971,-0.199815 -0.394463,-0.199815 -0.251492,0 -0.396186,0.199815 -0.142971,0.198093 -0.142971,0.54777 0,0.349678 0.142971,0.549493 0.144694,0.198093 0.396186,0.198093 0.251492,0 0.394463,-0.198093 0.144694,-0.199815 0.144694,-0.549493 z m -1.078314,-0.673516 q 0.09991,-0.172254 0.251491,-0.254937 0.153307,-0.08441 0.365181,-0.08441 0.351399,0 0.570163,0.279053 0.220486,0.279053 0.220486,0.733805 0,0.454753 -0.220486,0.733806 -0.218764,0.279053 -0.570163,0.279053 -0.211874,0 -0.365181,-0.08268 -0.151584,-0.0844 -0.251491,-0.256659 l 0,0.289388 -0.318672,0 0,-2.680285 0.318672,0 0,1.043864 z"
         style="font-size:3.52777767px;fill:#999999;stroke-width:0.26458332"
         id="path3630" />
      <path
         d="m 95.54004,91.684075 q -0.384128,0 -0.532267,0.08785 -0.14814,0.08785 -0.14814,0.299724 0,0.168809 0.110243,0.268717 0.111966,0.09819 0.303169,0.09819 0.26355,0 0.422024,-0.186035 0.160197,-0.187758 0.160197,-0.497816 l 0,-0.07062 -0.315226,0 z m 0.632175,-0.130913 0,1.100708 -0.316949,0 0,-0.292833 q -0.108521,0.175699 -0.27044,0.260104 -0.16192,0.08268 -0.396186,0.08268 -0.296278,0 -0.471978,-0.165365 -0.173977,-0.167087 -0.173977,-0.44614 0,-0.325561 0.217041,-0.490926 0.218763,-0.165365 0.651123,-0.165365 l 0.444417,0 0,-0.031 q 0,-0.218764 -0.144694,-0.33762 -0.142971,-0.120578 -0.403076,-0.120578 -0.165365,0 -0.322117,0.03962 -0.156751,0.03962 -0.301445,0.118856 l 0,-0.292833 q 0.173977,-0.06718 0.337619,-0.09991 0.163642,-0.03445 0.318671,-0.03445 0.418579,0 0.625285,0.217041 0.206706,0.217041 0.206706,0.658014 z"
         style="font-size:3.52777767px;fill:#999999;stroke-width:0.26458332"
         id="path3632" />
      <path
         d="m 98.056682,90.78146 0,0.299724 q -0.134359,-0.0689 -0.279053,-0.103353 -0.144694,-0.03445 -0.299723,-0.03445 -0.235989,0 -0.354845,0.07235 -0.117133,0.07235 -0.117133,0.217041 0,0.110243 0.08441,0.173977 0.08441,0.06201 0.339342,0.118856 l 0.10852,0.02412 q 0.33762,0.07235 0.478869,0.204983 0.142971,0.130913 0.142971,0.366902 0,0.268718 -0.213596,0.42547 -0.211873,0.156752 -0.583944,0.156752 -0.155029,0 -0.323839,-0.03101 -0.167087,-0.02928 -0.353122,-0.08957 l 0,-0.327284 q 0.1757,0.0913 0.346232,0.137804 0.170532,0.04479 0.33762,0.04479 0.223931,0 0.344509,-0.07579 0.120578,-0.07751 0.120578,-0.217041 0,-0.129191 -0.08785,-0.198093 -0.08613,-0.0689 -0.380684,-0.132636 l -0.110243,-0.02584 q -0.294555,-0.06201 -0.425469,-0.189481 -0.130913,-0.129191 -0.130913,-0.353122 0,-0.272162 0.192925,-0.420301 0.192925,-0.14814 0.54777,-0.14814 0.1757,0 0.330729,0.02584 0.155029,0.02584 0.285943,0.07751 z"
         style="font-size:3.52777767px;fill:#999999;stroke-width:0.26458332"
         id="path3634" />
      <path
         d="m 100.27016,91.489427 0,1.164443 -0.316953,0 0,-1.154107 q 0,-0.273885 -0.106798,-0.409967 -0.106798,-0.136081 -0.320394,-0.136081 -0.25666,0 -0.404799,0.163642 -0.148139,0.163642 -0.148139,0.44614 l 0,1.090373 -0.318671,0 0,-2.680285 0.318671,0 0,1.050755 q 0.113688,-0.173978 0.266995,-0.260105 0.155029,-0.08613 0.356567,-0.08613 0.332452,0 0.502981,0.206706 0.17054,0.204983 0.17054,0.604614 z"
         style="font-size:3.52777767px;fill:#999999;stroke-width:0.26458332"
         id="path3636" />
    </g>
    <g
       style="font-style:normal;font-weight:normal;font-size:11.28888893px;line-height:125%;font-family:sans-serif;letter-spacing:0px;word-spacing:0px;fill:#000000;fill-opacity:1;stroke:none;stroke-width:1px;stroke-linecap:butt;stroke-linejoin:miter;stroke-opacity:1"
       id="text4508">
      <path
         d="m 34.035389,106.65379 q 0.1524,0 0.254,-0.0212 0.105834,-0.0254 0.1651,-0.0677 0.05927,-0.0466 0.08467,-0.10584 0.0254,-0.0635 0.0254,-0.13546 0,-0.10584 -0.0508,-0.1778 -0.0508,-0.0762 -0.1397,-0.13124 -0.08467,-0.0593 -0.194733,-0.1016 -0.110067,-0.0466 -0.2286,-0.0889 -0.1143,-0.0423 -0.2286,-0.0931 -0.110067,-0.0508 -0.198967,-0.12277 -0.08467,-0.0762 -0.1397,-0.1778 -0.05503,-0.10583 -0.05503,-0.25823 0,-0.27093 0.160866,-0.44027 0.160867,-0.16933 0.465667,-0.2159 l 0,-0.43603 0.313267,0 0,0.42333 q 0.169333,0.008 0.309033,0.0423 0.143933,0.0296 0.2286,0.0635 l -0.07197,0.29634 q -0.0889,-0.0339 -0.224366,-0.0677 -0.135467,-0.0381 -0.3429,-0.0381 -0.2286,0 -0.351367,0.0847 -0.118533,0.0847 -0.118533,0.24554 0,0.0889 0.03387,0.14816 0.0381,0.0593 0.105834,0.10584 0.06773,0.0466 0.156633,0.0847 0.09313,0.0381 0.207433,0.0804 0.143934,0.055 0.2794,0.11853 0.135467,0.0593 0.237067,0.14393 0.1016,0.0847 0.160867,0.2032 0.0635,0.11854 0.0635,0.28364 0,0.24976 -0.1651,0.42333 -0.1651,0.17357 -0.508,0.2159 l 0,0.48683 -0.313267,0 0,-0.47413 q -0.2667,-0.008 -0.4318,-0.0593 -0.1651,-0.0508 -0.245533,-0.0974 l 0.09313,-0.2921 q 0.1143,0.055 0.270933,0.10583 0.156634,0.0466 0.3937,0.0466 z"
         style="font-style:normal;font-variant:normal;font-weight:normal;font-stretch:normal;font-size:4.23333359px;font-family:'Ubuntu Mono';-inkscape-font-specification:'Ubuntu Mono';fill:#ffffff"
         id="path4546" />
      <path
         d="m 37.735323,107.01362 0,-1.85843 q 0.4318,-0.14817 0.872067,-0.14817 0.135466,0 0.258233,0.0127 0.122767,0.008 0.270933,0.0423 l -0.0635,0.30904 q -0.135466,-0.0381 -0.2413,-0.0466 -0.1016,-0.0127 -0.224366,-0.0127 -0.258234,0 -0.524934,0.072 l 0,1.62983 -0.347133,0 z"
         style="font-style:normal;font-variant:normal;font-weight:normal;font-stretch:normal;font-size:4.23333359px;font-family:'Ubuntu Mono';-inkscape-font-specification:'Ubuntu Mono';fill:#ffffff"
         id="path4548" />
      <path
         d="m 40.28379,104.74455 q -0.110067,0 -0.1905,-0.0762 -0.08043,-0.0762 -0.08043,-0.20743 0,-0.13124 0.08043,-0.20744 0.08043,-0.0762 0.1905,-0.0762 0.1143,0 0.1905,0.0762 0.08043,0.0762 0.08043,0.20744 0,0.13123 -0.08043,0.20743 -0.0762,0.0762 -0.1905,0.0762 z m -0.0889,0.5969 -0.567267,0 0,-0.2921 0.9144,0 0,1.2065 q 0,0.2921 0.08043,0.3937 0.08043,0.0974 0.2413,0.0974 0.122767,0 0.224367,-0.0296 0.105833,-0.0296 0.1651,-0.0635 l 0.0508,0.29633 q -0.0254,0.0127 -0.07197,0.0339 -0.04657,0.0169 -0.110066,0.0339 -0.05927,0.0169 -0.135467,0.0296 -0.07197,0.0127 -0.1524,0.0127 -0.186267,0 -0.309033,-0.0508 -0.122767,-0.0508 -0.198967,-0.1524 -0.07197,-0.1016 -0.1016,-0.24977 -0.02963,-0.1524 -0.02963,-0.35137 l 0,-0.9144 z"
         style="font-style:normal;font-variant:normal;font-weight:normal;font-stretch:normal;font-size:4.23333359px;font-family:'Ubuntu Mono';-inkscape-font-specification:'Ubuntu Mono';fill:#ffffff"
         id="path4550" />
      <path
         d="m 42.197257,107.01362 0,-1.67217 -0.414867,0 0,-0.2921 0.414867,0 0,-0.1778 q 0,-0.2286 0.0635,-0.37677 0.0635,-0.1524 0.1651,-0.24553 0.105833,-0.0931 0.2413,-0.13123 0.1397,-0.0381 0.2921,-0.0381 0.1524,0 0.3048,0.0339 0.156633,0.0339 0.2921,0.0804 l -0.0635,0.30056 q -0.09313,-0.0466 -0.232834,-0.0804 -0.1397,-0.0339 -0.283633,-0.0339 -0.0889,0 -0.169333,0.0254 -0.0762,0.0212 -0.135467,0.0804 -0.05927,0.055 -0.09313,0.1524 -0.03387,0.0931 -0.03387,0.23707 l 0,0.17356 0.791633,0 0,0.2921 -0.791633,0 0,1.67217 -0.347133,0 z"
         style="font-style:normal;font-variant:normal;font-weight:normal;font-stretch:normal;font-size:4.23333359px;font-family:'Ubuntu Mono';-inkscape-font-specification:'Ubuntu Mono';fill:#ffffff"
         id="path4552" />
      <path
         d="m 46.20199,107.01362 0,-1.85843 q 0.4318,-0.14817 0.872067,-0.14817 0.135467,0 0.258233,0.0127 0.122767,0.008 0.270934,0.0423 l -0.0635,0.30904 q -0.135467,-0.0381 -0.2413,-0.0466 -0.1016,-0.0127 -0.224367,-0.0127 -0.258233,0 -0.524934,0.072 l 0,1.62983 -0.347133,0 z"
         style="font-style:normal;font-variant:normal;font-weight:normal;font-stretch:normal;font-size:4.23333359px;font-family:'Ubuntu Mono';-inkscape-font-specification:'Ubuntu Mono';fill:#ffffff"
         id="path4554" />
      <path
         d="m 48.962124,105.00279 q 0.397933,0 0.613833,0.24976 0.2159,0.24554 0.2159,0.7493 l 0,0.12277 -1.405467,0 q 0.02117,0.3048 0.198967,0.46567 0.182033,0.15663 0.508,0.15663 0.186267,0 0.3175,-0.0296 0.131233,-0.0296 0.198967,-0.0635 l 0.04657,0.29633 q -0.0635,0.0339 -0.2286,0.072 -0.1651,0.0381 -0.372533,0.0381 -0.254,0 -0.448733,-0.0762 -0.1905,-0.0804 -0.3175,-0.2159 -0.127,-0.13547 -0.1905,-0.32174 -0.0635,-0.1905 -0.0635,-0.41063 0,-0.26247 0.08043,-0.4572 0.08043,-0.19473 0.211667,-0.32173 0.131233,-0.127 0.296333,-0.1905 0.1651,-0.0635 0.338667,-0.0635 z m 0.474133,0.8382 q 0,-0.24977 -0.131233,-0.3937 -0.131234,-0.14817 -0.347134,-0.14817 -0.122766,0 -0.224366,0.0466 -0.09737,0.0466 -0.169334,0.12276 -0.07197,0.0762 -0.1143,0.17357 -0.04233,0.0974 -0.05503,0.19897 l 1.0414,0 z"
         style="font-style:normal;font-variant:normal;font-weight:normal;font-stretch:normal;font-size:4.23333359px;font-family:'Ubuntu Mono';-inkscape-font-specification:'Ubuntu Mono';fill:#ffffff"
         id="path4556" />
      <path
         d="m 50.511524,106.03572 q 0,0.1524 0.02963,0.28363 0.03387,0.127 0.09737,0.22437 0.0635,0.0931 0.160866,0.14817 0.1016,0.055 0.2413,0.055 0.122767,0 0.237067,-0.0466 0.1143,-0.0466 0.173567,-0.1016 l 0,-1.24036 q -0.04657,-0.0169 -0.131234,-0.0296 -0.08043,-0.0127 -0.224366,-0.0127 -0.258234,0 -0.423334,0.1905 -0.160866,0.18627 -0.160866,0.52917 z m -0.359834,0 q 0,-0.23707 0.06773,-0.42757 0.06773,-0.1905 0.1905,-0.32173 0.122766,-0.13547 0.296333,-0.20743 0.1778,-0.072 0.389467,-0.072 0.2286,0 0.402166,0.0381 0.1778,0.0339 0.300567,0.0677 l 0,2.59927 -0.351367,0 0,-0.7747 q -0.0635,0.0423 -0.182033,0.0804 -0.118533,0.0423 -0.2667,0.0423 -0.198967,0 -0.3556,-0.0762 -0.156633,-0.0762 -0.2667,-0.21167 -0.105833,-0.13547 -0.1651,-0.32173 -0.05927,-0.1905 -0.05927,-0.41487 z"
         style="font-style:normal;font-variant:normal;font-weight:normal;font-stretch:normal;font-size:4.23333359px;font-family:'Ubuntu Mono';-inkscape-font-specification:'Ubuntu Mono';fill:#ffffff"
         id="path4558" />
      <path
         d="m 53.915124,106.95859 q -0.1143,0.0296 -0.3048,0.0635 -0.186267,0.0339 -0.440267,0.0339 -0.224366,0 -0.372533,-0.0635 -0.148167,-0.0677 -0.2413,-0.18626 -0.09313,-0.12277 -0.131233,-0.28787 -0.0381,-0.1651 -0.0381,-0.36407 l 0,-1.1049 0.347133,0 0,1.0287 q 0,0.36407 0.105833,0.51647 0.110067,0.1524 0.364067,0.1524 0.05503,0 0.110067,-0.004 0.05927,-0.004 0.110066,-0.008 0.0508,-0.008 0.0889,-0.0127 0.0381,-0.008 0.0508,-0.0127 l 0,-1.65947 0.351367,0 0,1.90924 z"
         style="font-style:normal;font-variant:normal;font-weight:normal;font-stretch:normal;font-size:4.23333359px;font-family:'Ubuntu Mono';-inkscape-font-specification:'Ubuntu Mono';fill:#ffffff"
         id="path4560" />
      <path
         d="m 55.312124,105.00279 q 0.397933,0 0.613833,0.24976 0.2159,0.24554 0.2159,0.7493 l 0,0.12277 -1.405466,0 q 0.02117,0.3048 0.198966,0.46567 0.182034,0.15663 0.508,0.15663 0.186267,0 0.3175,-0.0296 0.131234,-0.0296 0.198967,-0.0635 l 0.04657,0.29633 q -0.0635,0.0339 -0.2286,0.072 -0.1651,0.0381 -0.372534,0.0381 -0.254,0 -0.448733,-0.0762 -0.1905,-0.0804 -0.3175,-0.2159 -0.127,-0.13547 -0.1905,-0.32174 -0.0635,-0.1905 -0.0635,-0.41063 0,-0.26247 0.08043,-0.4572 0.08043,-0.19473 0.211667,-0.32173 0.131233,-0.127 0.296333,-0.1905 0.1651,-0.0635 0.338667,-0.0635 z m 0.474133,0.8382 q 0,-0.24977 -0.131233,-0.3937 -0.131233,-0.14817 -0.347133,-0.14817 -0.122767,0 -0.224367,0.0466 -0.09737,0.0466 -0.169333,0.12276 -0.07197,0.0762 -0.1143,0.17357 -0.04233,0.0974 -0.05503,0.19897 l 1.0414,0 z"
         style="font-style:normal;font-variant:normal;font-weight:normal;font-stretch:normal;font-size:4.23333359px;font-family:'Ubuntu Mono';-inkscape-font-specification:'Ubuntu Mono';fill:#ffffff"
         id="path4562" />
      <path
         d="m 57.818257,106.52255 q 0,-0.10583 -0.0889,-0.17356 -0.08467,-0.0677 -0.2159,-0.11854 -0.127,-0.0508 -0.2794,-0.0974 -0.1524,-0.0508 -0.283633,-0.12277 -0.127,-0.072 -0.2159,-0.1778 -0.08467,-0.10583 -0.08467,-0.27517 0,-0.23706 0.1905,-0.3937 0.194734,-0.16086 0.605367,-0.16086 0.160867,0 0.3302,0.0254 0.173567,0.0212 0.296334,0.0593 l -0.0635,0.31327 q -0.03387,-0.0169 -0.09313,-0.0339 -0.05927,-0.0212 -0.135467,-0.0339 -0.0762,-0.0169 -0.1651,-0.0254 -0.08467,-0.008 -0.1651,-0.008 -0.4572,0 -0.4572,0.24977 0,0.0889 0.08467,0.1524 0.0889,0.0593 0.220133,0.11006 0.131234,0.0508 0.283634,0.10584 0.1524,0.0508 0.283633,0.127 0.131234,0.0762 0.2159,0.18626 0.0889,0.10584 0.0889,0.27094 0,0.2667 -0.207433,0.41486 -0.207434,0.14394 -0.656167,0.14394 -0.2032,0 -0.372533,-0.0339 -0.169334,-0.0339 -0.321734,-0.1016 l 0.06773,-0.3175 q 0.148166,0.0677 0.309033,0.1143 0.1651,0.0423 0.351367,0.0423 0.478366,0 0.478366,-0.2413 z"
         style="font-style:normal;font-variant:normal;font-weight:normal;font-stretch:normal;font-size:4.23333359px;font-family:'Ubuntu Mono';-inkscape-font-specification:'Ubuntu Mono';fill:#ffffff"
         id="path4564" />
      <path
         d="m 59.477724,105.04935 0.829734,0 0,0.2921 -0.829734,0 0,0.9144 q 0,0.14817 0.02117,0.2413 0.02117,0.0931 0.06773,0.1524 0.0508,0.055 0.127,0.0762 0.0762,0.0212 0.186267,0.0212 0.1524,0 0.245533,-0.0254 0.09313,-0.0254 0.1778,-0.0677 l 0.0508,0.29633 q -0.05927,0.0254 -0.1905,0.0677 -0.127,0.0423 -0.3175,0.0423 -0.220133,0 -0.359833,-0.0508 -0.1397,-0.0508 -0.220133,-0.1524 -0.0762,-0.1016 -0.105834,-0.24977 -0.02963,-0.1524 -0.02963,-0.35137 l 0,-0.9144 -0.414867,0 0,-0.2921 0.414867,0 0,-0.55033 0.347133,-0.0593 0,0.6096 z"
         style="font-style:normal;font-variant:normal;font-weight:normal;font-stretch:normal;font-size:4.23333359px;font-family:'Ubuntu Mono';-inkscape-font-specification:'Ubuntu Mono';fill:#ffffff"
         id="path4566" />
      <path
         d="m 61.158358,105.77325 0.931333,0 0,0.3302 -0.931333,0 0,-0.3302 z"
         style="font-style:normal;font-variant:normal;font-weight:normal;font-stretch:normal;font-size:4.23333359px;font-family:'Ubuntu Mono';-inkscape-font-specification:'Ubuntu Mono';fill:#ffffff"
         id="path4568" />
      <path
         d="m 64.460358,105.06205 q 0,0.13547 -0.05503,0.26247 -0.0508,0.127 -0.1397,0.24977 -0.08467,0.12276 -0.194734,0.2413 -0.110066,0.11853 -0.224366,0.23283 -0.0635,0.0635 -0.148167,0.1524 -0.08467,0.0889 -0.160867,0.18203 -0.0762,0.0931 -0.127,0.18204 -0.0508,0.0889 -0.0508,0.1524 l 1.2065,0 0,0.29633 -1.5875,0 q -0.0042,-0.0212 -0.0042,-0.0423 0,-0.0254 0,-0.0466 0,-0.1778 0.05927,-0.3302 0.05927,-0.1524 0.1524,-0.28787 0.09313,-0.13546 0.207434,-0.254 0.118533,-0.12276 0.232833,-0.23706 0.09313,-0.0931 0.1778,-0.18204 0.0889,-0.0889 0.1524,-0.1778 0.06773,-0.0889 0.105834,-0.18203 0.04233,-0.0974 0.04233,-0.19897 0,-0.1143 -0.0381,-0.19473 -0.03387,-0.0804 -0.09737,-0.13124 -0.05927,-0.055 -0.1397,-0.0804 -0.08043,-0.0254 -0.173566,-0.0254 -0.110067,0 -0.2032,0.0296 -0.0889,0.0296 -0.160867,0.072 -0.06773,0.0423 -0.118534,0.0847 -0.0508,0.0381 -0.0762,0.0635 l -0.173566,-0.24554 q 0.03387,-0.0381 0.1016,-0.0931 0.06773,-0.055 0.160866,-0.1016 0.09737,-0.0508 0.2159,-0.0847 0.118534,-0.0339 0.254001,-0.0339 0.410633,0 0.605366,0.1905 0.198967,0.18626 0.198967,0.53763 z"
         style="font-style:normal;font-variant:normal;font-weight:normal;font-stretch:normal;font-size:4.23333359px;font-family:'Ubuntu Mono';-inkscape-font-specification:'Ubuntu Mono';fill:#ffffff"
         id="path4570" />
      <path
         d="m 66.102891,105.65472 q 0,0.11007 -0.06773,0.1905 -0.0635,0.0804 -0.169333,0.0804 -0.110067,0 -0.1778,-0.0804 -0.06773,-0.0804 -0.06773,-0.1905 0,-0.11007 0.06773,-0.19473 0.06773,-0.0847 0.1778,-0.0847 0.105833,0 0.169333,0.0847 0.06773,0.0847 0.06773,0.19473 z m -1.109133,0.0466 q 0,-0.6604 0.224367,-1.01177 0.2286,-0.3556 0.639233,-0.3556 0.414867,0 0.639233,0.3556 0.224367,0.35137 0.224367,1.01177 0,0.6604 -0.224367,1.016 -0.224366,0.35136 -0.639233,0.35136 -0.410633,0 -0.639233,-0.35136 -0.224367,-0.3556 -0.224367,-1.016 z m 1.3716,0 q 0,-0.2159 -0.0254,-0.4064 -0.0254,-0.19474 -0.08467,-0.33867 -0.05927,-0.14393 -0.156633,-0.2286 -0.09737,-0.0847 -0.2413,-0.0847 -0.143933,0 -0.2413,0.0847 -0.09737,0.0847 -0.156633,0.2286 -0.05927,0.14393 -0.08467,0.33867 -0.0254,0.1905 -0.0254,0.4064 0,0.2159 0.0254,0.41063 0.0254,0.1905 0.08467,0.33443 0.05927,0.14394 0.156633,0.2286 0.09737,0.0847 0.2413,0.0847 0.143933,0 0.2413,-0.0847 0.09737,-0.0847 0.156633,-0.2286 0.05927,-0.14393 0.08467,-0.33443 0.0254,-0.19473 0.0254,-0.41063 z"
         style="font-style:normal;font-variant:normal;font-weight:normal;font-stretch:normal;font-size:4.23333359px;font-family:'Ubuntu Mono';-inkscape-font-specification:'Ubuntu Mono';fill:#ffffff"
         id="path4572" />
      <path
         d="m 68.219558,105.65472 q 0,0.11007 -0.06773,0.1905 -0.0635,0.0804 -0.169334,0.0804 -0.110066,0 -0.1778,-0.0804 -0.06773,-0.0804 -0.06773,-0.1905 0,-0.11007 0.06773,-0.19473 0.06773,-0.0847 0.1778,-0.0847 0.105834,0 0.169334,0.0847 0.06773,0.0847 0.06773,0.19473 z m -1.109133,0.0466 q 0,-0.6604 0.224366,-1.01177 0.2286,-0.3556 0.639234,-0.3556 0.414866,0 0.639233,0.3556 0.224367,0.35137 0.224367,1.01177 0,0.6604 -0.224367,1.016 -0.224367,0.35136 -0.639233,0.35136 -0.410634,0 -0.639234,-0.35136 -0.224366,-0.3556 -0.224366,-1.016 z m 1.3716,0 q 0,-0.2159 -0.0254,-0.4064 -0.0254,-0.19474 -0.08467,-0.33867 -0.05927,-0.14393 -0.156633,-0.2286 -0.09737,-0.0847 -0.2413,-0.0847 -0.143934,0 -0.2413,0.0847 -0.09737,0.0847 -0.156634,0.2286 -0.05927,0.14393 -0.08467,0.33867 -0.0254,0.1905 -0.0254,0.4064 0,0.2159 0.0254,0.41063 0.0254,0.1905 0.08467,0.33443 0.05927,0.14394 0.156634,0.2286 0.09737,0.0847 0.2413,0.0847 0.143933,0 0.2413,-0.0847 0.09737,-0.0847 0.156633,-0.2286 0.05927,-0.14393 0.08467,-0.33443 0.0254,-0.19473 0.0254,-0.41063 z"
         style="font-style:normal;font-variant:normal;font-weight:normal;font-stretch:normal;font-size:4.23333359px;font-family:'Ubuntu Mono';-inkscape-font-specification:'Ubuntu Mono';fill:#ffffff"
         id="path4574" />
      <path
         d="m 69.34986,104.93505 q 0.2159,-0.0847 0.4191,-0.21167 0.2032,-0.13123 0.376767,-0.3302 l 0.245533,0 0,2.32411 0.4953,0 0,0.29633 -1.4097,0 0,-0.29633 0.567267,0 0,-1.83727 q -0.04657,0.0423 -0.1143,0.0889 -0.0635,0.0423 -0.143934,0.0847 -0.0762,0.0423 -0.160866,0.0804 -0.08467,0.0381 -0.1651,0.0635 l -0.110067,-0.26247 z"
         style="font-style:normal;font-variant:normal;font-weight:normal;font-stretch:normal;font-size:4.23333359px;font-family:'Ubuntu Mono';-inkscape-font-specification:'Ubuntu Mono';fill:#ffffff"
         id="path4576" />
      <path
         d="m 72.520625,106.74269 q 0,0.127 -0.08467,0.22436 -0.08467,0.0974 -0.224366,0.0974 -0.143934,0 -0.2286,-0.0974 -0.08467,-0.0974 -0.08467,-0.22436 0,-0.13124 0.08467,-0.2286 0.08467,-0.0974 0.2286,-0.0974 0.1397,0 0.224366,0.0974 0.08467,0.0974 0.08467,0.2286 z"
         style="font-style:normal;font-variant:normal;font-weight:normal;font-stretch:normal;font-size:4.23333359px;font-family:'Ubuntu Mono';-inkscape-font-specification:'Ubuntu Mono';fill:#ffffff"
         id="path4578" />
      <path
         d="m 73.718657,107.01362 0,-1.85843 q 0.4318,-0.14817 0.872066,-0.14817 0.135467,0 0.258234,0.0127 0.122766,0.008 0.270933,0.0423 l -0.0635,0.30904 q -0.135467,-0.0381 -0.2413,-0.0466 -0.1016,-0.0127 -0.224367,-0.0127 -0.258233,0 -0.524933,0.072 l 0,1.62983 -0.347133,0 z"
         style="font-style:normal;font-variant:normal;font-weight:normal;font-stretch:normal;font-size:4.23333359px;font-family:'Ubuntu Mono';-inkscape-font-specification:'Ubuntu Mono';fill:#ffffff"
         id="path4580" />
      <path
         d="m 76.267125,104.74455 q -0.110066,0 -0.1905,-0.0762 -0.08043,-0.0762 -0.08043,-0.20743 0,-0.13124 0.08043,-0.20744 0.08043,-0.0762 0.1905,-0.0762 0.1143,0 0.1905,0.0762 0.08043,0.0762 0.08043,0.20744 0,0.13123 -0.08043,0.20743 -0.0762,0.0762 -0.1905,0.0762 z m -0.0889,0.5969 -0.567266,0 0,-0.2921 0.9144,0 0,1.2065 q 0,0.2921 0.08043,0.3937 0.08043,0.0974 0.2413,0.0974 0.122767,0 0.224367,-0.0296 0.105833,-0.0296 0.1651,-0.0635 l 0.0508,0.29633 q -0.0254,0.0127 -0.07197,0.0339 -0.04657,0.0169 -0.110067,0.0339 -0.05927,0.0169 -0.135466,0.0296 -0.07197,0.0127 -0.1524,0.0127 -0.186267,0 -0.309034,-0.0508 -0.122766,-0.0508 -0.198966,-0.1524 -0.07197,-0.1016 -0.1016,-0.24977 -0.02963,-0.1524 -0.02963,-0.35137 l 0,-0.9144 z"
         style="font-style:normal;font-variant:normal;font-weight:normal;font-stretch:normal;font-size:4.23333359px;font-family:'Ubuntu Mono';-inkscape-font-specification:'Ubuntu Mono';fill:#ffffff"
         id="path4582" />
      <path
         d="m 78.180594,107.01362 0,-1.67217 -0.414867,0 0,-0.2921 0.414867,0 0,-0.1778 q 0,-0.2286 0.0635,-0.37677 0.0635,-0.1524 0.1651,-0.24553 0.105833,-0.0931 0.2413,-0.13123 0.1397,-0.0381 0.2921,-0.0381 0.1524,0 0.3048,0.0339 0.156633,0.0339 0.2921,0.0804 l -0.0635,0.30056 q -0.09313,-0.0466 -0.232833,-0.0804 -0.1397,-0.0339 -0.283634,-0.0339 -0.0889,0 -0.169333,0.0254 -0.0762,0.0212 -0.135467,0.0804 -0.05927,0.055 -0.09313,0.1524 -0.03387,0.0931 -0.03387,0.23707 l 0,0.17356 0.791634,0 0,0.2921 -0.791634,0 0,1.67217 -0.347133,0 z"
         style="font-style:normal;font-variant:normal;font-weight:normal;font-stretch:normal;font-size:4.23333359px;font-family:'Ubuntu Mono';-inkscape-font-specification:'Ubuntu Mono';fill:#ffffff"
         id="path4584" />
      <path
         d="m 82.032924,105.10439 q 0.1905,-0.0466 0.376766,-0.072 0.1905,-0.0254 0.3556,-0.0254 0.3937,0 0.592667,0.2032 0.2032,0.2032 0.2032,0.65193 l 0,1.15147 -0.347133,0 0,-1.08797 q 0,-0.1905 -0.03387,-0.30903 -0.03387,-0.11853 -0.09737,-0.18203 -0.05927,-0.0677 -0.148166,-0.0931 -0.08467,-0.0254 -0.186267,-0.0254 -0.08467,0 -0.182033,0.0127 -0.09313,0.008 -0.182034,0.0254 l 0,1.65947 -0.351366,0 0,-1.90923 z"
         style="font-style:normal;font-variant:normal;font-weight:normal;font-stretch:normal;font-size:4.23333359px;font-family:'Ubuntu Mono';-inkscape-font-specification:'Ubuntu Mono';fill:#ffffff"
         id="path4586" />
      <path
         d="m 84.928526,106.76385 q 0.131233,0 0.232833,-0.008 0.105833,-0.008 0.173567,-0.0212 l 0,-0.5842 q -0.06773,-0.0212 -0.1651,-0.0339 -0.09313,-0.0127 -0.198967,-0.0127 -0.09737,0 -0.1905,0.0169 -0.09313,0.0127 -0.1651,0.0508 -0.07197,0.0381 -0.118533,0.1016 -0.04657,0.0593 -0.04657,0.1524 0,0.1905 0.127,0.2667 0.131233,0.072 0.351367,0.072 z m -0.03387,-1.76106 q 0.220133,0 0.3683,0.055 0.1524,0.055 0.245533,0.1524 0.09313,0.0974 0.131234,0.23707 0.0381,0.1397 0.0381,0.3048 l 0,1.22766 q -0.122767,0.0212 -0.325967,0.0508 -0.198967,0.0296 -0.410633,0.0296 -0.160867,0 -0.313267,-0.0296 -0.1524,-0.0254 -0.270933,-0.0931 -0.118534,-0.072 -0.1905,-0.19473 -0.07197,-0.12277 -0.07197,-0.31327 0,-0.16933 0.07197,-0.28363 0.0762,-0.11854 0.1905,-0.1905 0.118533,-0.072 0.2667,-0.1016 0.1524,-0.0339 0.3048,-0.0339 0.207433,0 0.4064,0.0466 l 0,-0.0974 q 0,-0.0889 -0.02117,-0.16933 -0.01693,-0.0847 -0.07197,-0.1524 -0.0508,-0.0677 -0.143933,-0.10584 -0.0889,-0.0423 -0.232833,-0.0423 -0.182034,0 -0.3175,0.0254 -0.135467,0.0254 -0.207434,0.0508 l -0.04233,-0.28787 q 0.07197,-0.0339 0.237067,-0.0593 0.169333,-0.0254 0.359833,-0.0254 z"
         style="font-style:normal;font-variant:normal;font-weight:normal;font-stretch:normal;font-size:4.23333359px;font-family:'Ubuntu Mono';-inkscape-font-specification:'Ubuntu Mono';fill:#ffffff"
         id="path4588" />
      <path
         d="m 86.139261,105.10439 q 0.254,-0.0974 0.478367,-0.0974 0.122766,0 0.2286,0.0381 0.110066,0.0339 0.186266,0.11007 0.182034,-0.14817 0.389467,-0.14817 0.1016,0 0.1905,0.0381 0.09313,0.0381 0.160867,0.1143 0.07197,0.0762 0.1143,0.1905 0.04233,0.1143 0.04233,0.2667 l 0,1.397 -0.3175,0 0,-1.40547 q 0,-0.1524 -0.06773,-0.23283 -0.06773,-0.0804 -0.169333,-0.0804 -0.0508,0 -0.105834,0.0254 -0.05503,0.0254 -0.1016,0.0804 0.0254,0.0974 0.0254,0.2159 l 0,0.63923 -0.3175,0 0,-0.64346 q 0,-0.14817 -0.04657,-0.23284 -0.04657,-0.0847 -0.182033,-0.0847 -0.08467,0 -0.1905,0.0381 l 0,1.68063 -0.3175,0 0,-1.90923 z"
         style="font-style:normal;font-variant:normal;font-weight:normal;font-stretch:normal;font-size:4.23333359px;font-family:'Ubuntu Mono';-inkscape-font-specification:'Ubuntu Mono';fill:#ffffff"
         id="path4590" />
      <path
         d="m 89.178793,105.00279 q 0.397933,0 0.613833,0.24976 0.2159,0.24554 0.2159,0.7493 l 0,0.12277 -1.405467,0 q 0.02117,0.3048 0.198967,0.46567 0.182033,0.15663 0.508,0.15663 0.186267,0 0.3175,-0.0296 0.131233,-0.0296 0.198967,-0.0635 l 0.04657,0.29633 q -0.0635,0.0339 -0.2286,0.072 -0.1651,0.0381 -0.372533,0.0381 -0.254,0 -0.448733,-0.0762 -0.1905,-0.0804 -0.3175,-0.2159 -0.127,-0.13547 -0.1905,-0.32174 -0.0635,-0.1905 -0.0635,-0.41063 0,-0.26247 0.08043,-0.4572 0.08043,-0.19473 0.211667,-0.32173 0.131233,-0.127 0.296333,-0.1905 0.1651,-0.0635 0.338667,-0.0635 z m 0.474133,0.8382 q 0,-0.24977 -0.131233,-0.3937 -0.131234,-0.14817 -0.347134,-0.14817 -0.122766,0 -0.224366,0.0466 -0.09737,0.0466 -0.169334,0.12276 -0.07197,0.0762 -0.1143,0.17357 -0.04233,0.0974 -0.05503,0.19897 l 1.0414,0 z"
         style="font-style:normal;font-variant:normal;font-weight:normal;font-stretch:normal;font-size:4.23333359px;font-family:'Ubuntu Mono';-inkscape-font-specification:'Ubuntu Mono';fill:#ffffff"
         id="path4592" />
      <path
         d="m 90.393758,106.15425 1.731433,0 0,0.30057 -1.731433,0 0,-0.30057 z m 0,-0.80433 1.731433,0 0,0.30057 -1.731433,0 0,-0.30057 z"
         style="font-style:normal;font-variant:normal;font-weight:normal;font-stretch:normal;font-size:4.23333359px;font-family:'Ubuntu Mono';-inkscape-font-specification:'Ubuntu Mono';fill:#ffffff"
         id="path4594" />
      <path
         d="m 94.263026,105.70129 q 0,0.36406 -0.09313,0.61806 -0.0889,0.254 -0.249767,0.41487 -0.156633,0.15663 -0.376766,0.2286 -0.2159,0.072 -0.4699,0.072 -0.262467,0 -0.529167,-0.0635 l 0,-2.54001 q 0.2667,-0.0635 0.529167,-0.0635 0.254,0 0.4699,0.072 0.220133,0.072 0.376766,0.23283 0.160867,0.16087 0.249767,0.41487 0.09313,0.254 0.09313,0.61384 z m -1.3716,1.02023 q 0.105834,0.0127 0.2159,0.0127 0.1905,0 0.338667,-0.055 0.148167,-0.0593 0.249767,-0.18204 0.1016,-0.127 0.156633,-0.32173 0.05503,-0.19897 0.05503,-0.47413 0,-0.5334 -0.207433,-0.78317 -0.2032,-0.24977 -0.605367,-0.24977 -0.05503,0 -0.110066,0.004 -0.0508,0 -0.09313,0.008 l 0,2.04047 z"
         style="font-style:normal;font-variant:normal;font-weight:normal;font-stretch:normal;font-size:4.23333359px;font-family:'Ubuntu Mono';-inkscape-font-specification:'Ubuntu Mono';fill:#ffffff"
         id="path4596" />
      <path
         d="m 95.511862,106.76385 q 0.131233,0 0.232833,-0.008 0.105833,-0.008 0.173567,-0.0212 l 0,-0.5842 q -0.06773,-0.0212 -0.1651,-0.0339 -0.09313,-0.0127 -0.198967,-0.0127 -0.09737,0 -0.1905,0.0169 -0.09313,0.0127 -0.1651,0.0508 -0.07197,0.0381 -0.118533,0.1016 -0.04657,0.0593 -0.04657,0.1524 0,0.1905 0.127,0.2667 0.131233,0.072 0.351367,0.072 z m -0.03387,-1.76106 q 0.220133,0 0.3683,0.055 0.1524,0.055 0.245533,0.1524 0.09313,0.0974 0.131234,0.23707 0.0381,0.1397 0.0381,0.3048 l 0,1.22766 q -0.122767,0.0212 -0.325967,0.0508 -0.198967,0.0296 -0.410633,0.0296 -0.160867,0 -0.313267,-0.0296 -0.1524,-0.0254 -0.270933,-0.0931 -0.118534,-0.072 -0.1905,-0.19473 -0.07197,-0.12277 -0.07197,-0.31327 0,-0.16933 0.07197,-0.28363 0.0762,-0.11854 0.1905,-0.1905 0.118533,-0.072 0.2667,-0.1016 0.1524,-0.0339 0.3048,-0.0339 0.207433,0 0.4064,0.0466 l 0,-0.0974 q 0,-0.0889 -0.02117,-0.16933 -0.01693,-0.0847 -0.07197,-0.1524 -0.0508,-0.0677 -0.143933,-0.10584 -0.0889,-0.0423 -0.232833,-0.0423 -0.182034,0 -0.3175,0.0254 -0.135467,0.0254 -0.207434,0.0508 l -0.04233,-0.28787 q 0.07197,-0.0339 0.237067,-0.0593 0.169333,-0.0254 0.359833,-0.0254 z"
         style="font-style:normal;font-variant:normal;font-weight:normal;font-stretch:normal;font-size:4.23333359px;font-family:'Ubuntu Mono';-inkscape-font-specification:'Ubuntu Mono';fill:#ffffff"
         id="path4598" />
      <path
         d="m 98.538693,105.04935 q -0.0762,0.27517 -0.173566,0.54187 -0.09737,0.26247 -0.198967,0.51647 -0.1016,0.24976 -0.207433,0.47836 -0.105834,0.2286 -0.2032,0.42757 l -0.3175,0 q -0.198967,-0.39793 -0.402167,-0.90593 -0.2032,-0.508 -0.359834,-1.05834 l 0.381001,0 q 0.0508,0.18627 0.1143,0.3937 0.06773,0.20744 0.1397,0.41487 0.07197,0.20743 0.143933,0.40217 0.0762,0.1905 0.148167,0.3429 0.07197,-0.1524 0.148166,-0.3429 0.08043,-0.19474 0.156634,-0.40217 0.0762,-0.20743 0.143933,-0.41487 0.07197,-0.20743 0.122767,-0.3937 l 0.364066,0 z"
         style="font-style:normal;font-variant:normal;font-weight:normal;font-stretch:normal;font-size:4.23333359px;font-family:'Ubuntu Mono';-inkscape-font-specification:'Ubuntu Mono';fill:#ffffff"
         id="path4600" />
      <path
         d="m 99.762125,105.00279 q 0.397935,0 0.613835,0.24976 0.2159,0.24554 0.2159,0.7493 l 0,0.12277 -1.405469,0 q 0.02117,0.3048 0.198967,0.46567 0.182033,0.15663 0.508,0.15663 0.186262,0 0.317502,-0.0296 0.13123,-0.0296 0.19896,-0.0635 l 0.0466,0.29633 q -0.0635,0.0339 -0.2286,0.072 -0.1651,0.0381 -0.372532,0.0381 -0.254,0 -0.448733,-0.0762 -0.1905,-0.0804 -0.3175,-0.2159 -0.127,-0.13547 -0.1905,-0.32174 -0.0635,-0.1905 -0.0635,-0.41063 0,-0.26247 0.08043,-0.4572 0.08043,-0.19473 0.211667,-0.32173 0.131233,-0.127 0.296333,-0.1905 0.1651,-0.0635 0.338667,-0.0635 z m 0.474135,0.8382 q 0,-0.24977 -0.13124,-0.3937 -0.131229,-0.14817 -0.347129,-0.14817 -0.122766,0 -0.224366,0.0466 -0.09737,0.0466 -0.169334,0.12276 -0.07197,0.0762 -0.1143,0.17357 -0.04233,0.0974 -0.05503,0.19897 l 1.041402,0 z"
         style="font-style:normal;font-variant:normal;font-weight:normal;font-stretch:normal;font-size:4.23333359px;font-family:'Ubuntu Mono';-inkscape-font-specification:'Ubuntu Mono';fill:#ffffff"
         id="path4602" />
      <path
         d="m 33.383456,111.03952 0.169333,0 q 0.07197,0 0.127,-0.0296 0.05503,-0.0339 0.0889,-0.0847 0.0381,-0.055 0.05503,-0.11853 0.02117,-0.0677 0.02117,-0.13547 l 0,-0.68157 q 0,-0.15663 0.02963,-0.27516 0.03387,-0.11854 0.110066,-0.19897 0.0762,-0.0847 0.2032,-0.127 0.131234,-0.0423 0.325967,-0.0423 l 0.3429,0 0,0.27516 -0.359833,0 q -0.1778,0 -0.254,0.0804 -0.07197,0.0804 -0.07197,0.2921 l 0,0.5842 q 0,0.28363 -0.08467,0.4191 -0.08467,0.13123 -0.194733,0.1778 0.110067,0.0508 0.194733,0.1905 0.08467,0.1397 0.08467,0.4064 l 0,0.5842 q 0,0.21166 0.0762,0.2921 0.0762,0.0804 0.254,0.0804 l 0.3556,0 0,0.27517 -0.3429,0 q -0.194733,0 -0.325967,-0.0423 -0.127,-0.0423 -0.2032,-0.127 -0.0762,-0.0804 -0.110066,-0.19896 -0.02963,-0.11854 -0.02963,-0.27517 l 0,-0.68157 q 0,-0.0635 -0.02117,-0.127 -0.01693,-0.0677 -0.05503,-0.11853 -0.03387,-0.055 -0.0889,-0.0889 -0.0508,-0.0339 -0.122766,-0.0339 l -0.173567,0 0,-0.27093 z"
         style="font-style:normal;font-variant:normal;font-weight:normal;font-stretch:normal;font-size:4.23333359px;font-family:'Ubuntu Mono';-inkscape-font-specification:'Ubuntu Mono';fill:#ffffff"
         id="path4604" />
      <path
         d="m 38.154423,114.72252 0,0.1905 q 0,0.18627 -0.02117,0.42757 -0.02117,0.23706 -0.05503,0.43603 l -0.1778,0 q -0.02963,-0.19897 -0.0508,-0.43603 -0.02117,-0.2413 -0.02117,-0.4318 l 0,-0.18627 0.325967,0 z m 0.6985,0 0,0.1905 q 0,0.18627 -0.02117,0.42757 -0.02117,0.23706 -0.0508,0.43603 l -0.1778,0 q -0.03387,-0.19897 -0.05503,-0.43603 -0.02117,-0.2413 -0.02117,-0.4318 l 0,-0.18627 0.325967,0 z"
         style="font-style:normal;font-variant:normal;font-weight:normal;font-stretch:normal;font-size:4.23333359px;font-family:'Ubuntu Mono';-inkscape-font-specification:'Ubuntu Mono';fill:#ffffff"
         id="path4606" />
      <path
         d="m 39.85199,117.59695 0,-1.85843 q 0.4318,-0.14817 0.872066,-0.14817 0.135467,0 0.258234,0.0127 0.122766,0.008 0.270933,0.0423 l -0.0635,0.30903 q -0.135467,-0.0381 -0.2413,-0.0466 -0.1016,-0.0127 -0.224367,-0.0127 -0.258233,0 -0.524933,0.072 l 0,1.62983 -0.347133,0 z"
         style="font-style:normal;font-variant:normal;font-weight:normal;font-stretch:normal;font-size:4.23333359px;font-family:'Ubuntu Mono';-inkscape-font-specification:'Ubuntu Mono';fill:#ffffff"
         id="path4608" />
      <path
         d="m 42.612123,115.58612 q 0.397934,0 0.613834,0.24977 0.2159,0.24553 0.2159,0.7493 l 0,0.12276 -1.405467,0 q 0.02117,0.3048 0.198967,0.46567 0.182033,0.15663 0.508,0.15663 0.186266,0 0.3175,-0.0296 0.131233,-0.0296 0.198966,-0.0635 l 0.04657,0.29633 q -0.0635,0.0339 -0.2286,0.072 -0.1651,0.0381 -0.372533,0.0381 -0.254,0 -0.448734,-0.0762 -0.1905,-0.0804 -0.3175,-0.2159 -0.127,-0.13547 -0.1905,-0.32173 -0.0635,-0.1905 -0.0635,-0.41064 0,-0.26246 0.08043,-0.4572 0.08043,-0.19473 0.211666,-0.32173 0.131234,-0.127 0.296334,-0.1905 0.1651,-0.0635 0.338666,-0.0635 z m 0.474134,0.8382 q 0,-0.24977 -0.131234,-0.3937 -0.131233,-0.14817 -0.347133,-0.14817 -0.122767,0 -0.224367,0.0466 -0.09737,0.0466 -0.169333,0.12277 -0.07197,0.0762 -0.1143,0.17356 -0.04233,0.0974 -0.05503,0.19897 l 1.0414,0 z"
         style="font-style:normal;font-variant:normal;font-weight:normal;font-stretch:normal;font-size:4.23333359px;font-family:'Ubuntu Mono';-inkscape-font-specification:'Ubuntu Mono';fill:#ffffff"
         id="path4610" />
      <path
         d="m 45.118257,117.10589 q 0,-0.10584 -0.0889,-0.17357 -0.08467,-0.0677 -0.2159,-0.11853 -0.127,-0.0508 -0.2794,-0.0974 -0.1524,-0.0508 -0.283634,-0.12277 -0.127,-0.072 -0.2159,-0.1778 -0.08467,-0.10583 -0.08467,-0.27516 0,-0.23707 0.1905,-0.3937 0.194733,-0.16087 0.605366,-0.16087 0.160867,0 0.3302,0.0254 0.173567,0.0212 0.296334,0.0593 l -0.0635,0.31326 q -0.03387,-0.0169 -0.09313,-0.0339 -0.05927,-0.0212 -0.135466,-0.0339 -0.0762,-0.0169 -0.1651,-0.0254 -0.08467,-0.008 -0.1651,-0.008 -0.4572,0 -0.4572,0.24977 0,0.0889 0.08467,0.1524 0.0889,0.0593 0.220134,0.11007 0.131233,0.0508 0.283633,0.10583 0.1524,0.0508 0.283633,0.127 0.131234,0.0762 0.2159,0.18627 0.0889,0.10583 0.0889,0.27093 0,0.2667 -0.207433,0.41487 -0.207433,0.14393 -0.656167,0.14393 -0.2032,0 -0.372533,-0.0339 -0.169333,-0.0339 -0.321733,-0.1016 l 0.06773,-0.3175 q 0.148167,0.0677 0.309033,0.1143 0.1651,0.0423 0.351367,0.0423 0.478367,0 0.478367,-0.2413 z"
         style="font-style:normal;font-variant:normal;font-weight:normal;font-stretch:normal;font-size:4.23333359px;font-family:'Ubuntu Mono';-inkscape-font-specification:'Ubuntu Mono';fill:#ffffff"
         id="path4612" />
      <path
         d="m 47.336524,116.61905 q 0,-0.3429 -0.160867,-0.52916 -0.160867,-0.1905 -0.4191,-0.1905 -0.143934,0 -0.2286,0.0127 -0.08043,0.0127 -0.127,0.0296 l 0,1.24037 q 0.05927,0.055 0.173566,0.1016 0.1143,0.0466 0.237067,0.0466 0.1397,0 0.237067,-0.055 0.1016,-0.055 0.1651,-0.14817 0.0635,-0.0974 0.09313,-0.22436 0.02963,-0.13124 0.02963,-0.28364 z m 0.359833,0 q 0,0.22437 -0.05927,0.41487 -0.05503,0.18627 -0.1651,0.32173 -0.105833,0.13547 -0.262466,0.21167 -0.156634,0.0762 -0.3556,0.0762 -0.156634,0 -0.275167,-0.0381 -0.118534,-0.0381 -0.1778,-0.0847 l 0,0.7747 -0.351367,0 0,-2.6035 q 0.1143,-0.0339 0.2921,-0.0677 0.182033,-0.0339 0.414867,-0.0339 0.211667,0 0.385233,0.072 0.173567,0.072 0.296334,0.20743 0.122766,0.13124 0.1905,0.32174 0.06773,0.1905 0.06773,0.42756 z"
         style="font-style:normal;font-variant:normal;font-weight:normal;font-stretch:normal;font-size:4.23333359px;font-family:'Ubuntu Mono';-inkscape-font-specification:'Ubuntu Mono';fill:#ffffff"
         id="path4614" />
      <path
         d="m 49.813024,116.61482 q 0,0.23283 -0.06773,0.42333 -0.0635,0.18627 -0.182033,0.32174 -0.118533,0.13546 -0.283633,0.21166 -0.1651,0.072 -0.359834,0.072 -0.1905,0 -0.3556,-0.072 -0.160866,-0.0762 -0.2794,-0.21166 -0.118533,-0.13547 -0.186266,-0.32174 -0.0635,-0.1905 -0.0635,-0.42333 0,-0.23283 0.0635,-0.42333 0.06773,-0.1905 0.186266,-0.32174 0.118534,-0.13546 0.2794,-0.20743 0.1651,-0.0762 0.3556,-0.0762 0.194734,0 0.359834,0.0762 0.1651,0.072 0.283633,0.20743 0.118533,0.13124 0.182033,0.32174 0.06773,0.1905 0.06773,0.42333 z m -0.359834,0 q 0,-0.33443 -0.143933,-0.52493 -0.143933,-0.19474 -0.389467,-0.19474 -0.2413,0 -0.385233,0.19474 -0.1397,0.1905 -0.1397,0.52493 0,0.3302 0.1397,0.52493 0.143933,0.1905 0.385233,0.1905 0.245534,0 0.389467,-0.1905 0.143933,-0.19473 0.143933,-0.52493 z"
         style="font-style:normal;font-variant:normal;font-weight:normal;font-stretch:normal;font-size:4.23333359px;font-family:'Ubuntu Mono';-inkscape-font-specification:'Ubuntu Mono';fill:#ffffff"
         id="path4616" />
      <path
         d="m 50.282924,115.68772 q 0.1905,-0.0466 0.376766,-0.072 0.1905,-0.0254 0.3556,-0.0254 0.3937,0 0.592667,0.2032 0.2032,0.2032 0.2032,0.65194 l 0,1.15146 -0.347133,0 0,-1.08796 q 0,-0.1905 -0.03387,-0.30904 -0.03387,-0.11853 -0.09737,-0.18203 -0.05927,-0.0677 -0.148166,-0.0931 -0.08467,-0.0254 -0.186267,-0.0254 -0.08467,0 -0.182033,0.0127 -0.09313,0.008 -0.182034,0.0254 l 0,1.65946 -0.351366,0 0,-1.90923 z"
         style="font-style:normal;font-variant:normal;font-weight:normal;font-stretch:normal;font-size:4.23333359px;font-family:'Ubuntu Mono';-inkscape-font-specification:'Ubuntu Mono';fill:#ffffff"
         id="path4618" />
      <path
         d="m 53.584924,117.10589 q 0,-0.10584 -0.0889,-0.17357 -0.08467,-0.0677 -0.2159,-0.11853 -0.127,-0.0508 -0.2794,-0.0974 -0.1524,-0.0508 -0.283633,-0.12277 -0.127,-0.072 -0.2159,-0.1778 -0.08467,-0.10583 -0.08467,-0.27516 0,-0.23707 0.1905,-0.3937 0.194733,-0.16087 0.605367,-0.16087 0.160866,0 0.3302,0.0254 0.173566,0.0212 0.296333,0.0593 l -0.0635,0.31326 q -0.03387,-0.0169 -0.09313,-0.0339 -0.05927,-0.0212 -0.135467,-0.0339 -0.0762,-0.0169 -0.1651,-0.0254 -0.08467,-0.008 -0.1651,-0.008 -0.4572,0 -0.4572,0.24977 0,0.0889 0.08467,0.1524 0.0889,0.0593 0.220133,0.11007 0.131233,0.0508 0.283633,0.10583 0.1524,0.0508 0.283634,0.127 0.131233,0.0762 0.2159,0.18627 0.0889,0.10583 0.0889,0.27093 0,0.2667 -0.207434,0.41487 -0.207433,0.14393 -0.656166,0.14393 -0.2032,0 -0.372534,-0.0339 -0.169333,-0.0339 -0.321733,-0.1016 l 0.06773,-0.3175 q 0.148167,0.0677 0.309034,0.1143 0.1651,0.0423 0.351366,0.0423 0.478367,0 0.478367,-0.2413 z"
         style="font-style:normal;font-variant:normal;font-weight:normal;font-stretch:normal;font-size:4.23333359px;font-family:'Ubuntu Mono';-inkscape-font-specification:'Ubuntu Mono';fill:#ffffff"
         id="path4620" />
      <path
         d="m 55.312124,115.58612 q 0.397933,0 0.613833,0.24977 0.2159,0.24553 0.2159,0.7493 l 0,0.12276 -1.405466,0 q 0.02117,0.3048 0.198966,0.46567 0.182034,0.15663 0.508,0.15663 0.186267,0 0.3175,-0.0296 0.131234,-0.0296 0.198967,-0.0635 l 0.04657,0.29633 q -0.0635,0.0339 -0.2286,0.072 -0.1651,0.0381 -0.372534,0.0381 -0.254,0 -0.448733,-0.0762 -0.1905,-0.0804 -0.3175,-0.2159 -0.127,-0.13547 -0.1905,-0.32173 -0.0635,-0.1905 -0.0635,-0.41064 0,-0.26246 0.08043,-0.4572 0.08043,-0.19473 0.211667,-0.32173 0.131233,-0.127 0.296333,-0.1905 0.1651,-0.0635 0.338667,-0.0635 z m 0.474133,0.8382 q 0,-0.24977 -0.131233,-0.3937 -0.131233,-0.14817 -0.347133,-0.14817 -0.122767,0 -0.224367,0.0466 -0.09737,0.0466 -0.169333,0.12277 -0.07197,0.0762 -0.1143,0.17356 -0.04233,0.0974 -0.05503,0.19897 l 1.0414,0 z"
         style="font-style:normal;font-variant:normal;font-weight:normal;font-stretch:normal;font-size:4.23333359px;font-family:'Ubuntu Mono';-inkscape-font-specification:'Ubuntu Mono';fill:#ffffff"
         id="path4622" />
      <path
         d="m 57.204424,114.72252 0,0.1905 q 0,0.18627 -0.02117,0.42757 -0.02117,0.23706 -0.05503,0.43603 l -0.1778,0 q -0.02963,-0.19897 -0.0508,-0.43603 -0.02117,-0.2413 -0.02117,-0.4318 l 0,-0.18627 0.325967,0 z m 0.6985,0 0,0.1905 q 0,0.18627 -0.02117,0.42757 -0.02117,0.23706 -0.0508,0.43603 l -0.1778,0 q -0.03387,-0.19897 -0.05503,-0.43603 -0.02117,-0.2413 -0.02117,-0.4318 l 0,-0.18627 0.325967,0 z"
         style="font-style:normal;font-variant:normal;font-weight:normal;font-stretch:normal;font-size:4.23333359px;font-family:'Ubuntu Mono';-inkscape-font-specification:'Ubuntu Mono';fill:#ffffff"
         id="path4624" />
      <path
         d="m 59.820624,117.32602 q 0,0.127 -0.08467,0.22437 -0.08467,0.0974 -0.224367,0.0974 -0.143933,0 -0.2286,-0.0974 -0.08467,-0.0974 -0.08467,-0.22437 0,-0.13123 0.08467,-0.2286 0.08467,-0.0974 0.2286,-0.0974 0.1397,0 0.224367,0.0974 0.08467,0.0974 0.08467,0.2286 z m 0,-1.36737 q 0,0.127 -0.08467,0.22437 -0.08467,0.0974 -0.224367,0.0974 -0.143933,0 -0.2286,-0.0974 -0.08467,-0.0974 -0.08467,-0.22437 0,-0.13123 0.08467,-0.2286 0.08467,-0.0974 0.2286,-0.0974 0.1397,0 0.224367,0.0974 0.08467,0.0974 0.08467,0.2286 z"
         style="font-style:normal;font-variant:normal;font-weight:normal;font-stretch:normal;font-size:4.23333359px;font-family:'Ubuntu Mono';-inkscape-font-specification:'Ubuntu Mono';fill:#ffffff"
         id="path4626" />
      <path
         d="m 63.554425,114.72252 0,0.1905 q 0,0.18627 -0.02117,0.42757 -0.02117,0.23706 -0.05503,0.43603 l -0.177801,0 q -0.02963,-0.19897 -0.0508,-0.43603 -0.02117,-0.2413 -0.02117,-0.4318 l 0,-0.18627 0.325967,0 z m 0.6985,0 0,0.1905 q 0,0.18627 -0.02117,0.42757 -0.02117,0.23706 -0.0508,0.43603 l -0.1778,0 q -0.03387,-0.19897 -0.05503,-0.43603 -0.02117,-0.2413 -0.02117,-0.4318 l 0,-0.18627 0.325967,0 z"
         style="font-style:normal;font-variant:normal;font-weight:normal;font-stretch:normal;font-size:4.23333359px;font-family:'Ubuntu Mono';-inkscape-font-specification:'Ubuntu Mono';fill:#ffffff"
         id="path4628" />
      <path
         d="m 66.030925,115.27285 0,2.02777 0.508,0 0,0.29633 -1.363134,0 0,-0.29633 0.508,0 0,-2.02777 -0.508,0 0,-0.29633 1.363134,0 0,0.29633 -0.508,0 z"
         style="font-style:normal;font-variant:normal;font-weight:normal;font-stretch:normal;font-size:4.23333359px;font-family:'Ubuntu Mono';-inkscape-font-specification:'Ubuntu Mono';fill:#ffffff"
         id="path4630" />
      <path
         d="m 68.156058,114.72252 0,0.1905 q 0,0.0931 -0.0085,0.2159 -0.0042,0.11853 -0.01693,0.24977 -0.0085,0.127 -0.02117,0.254 -0.0127,0.12276 -0.02963,0.22013 l -0.2159,0 q -0.01693,-0.0974 -0.02963,-0.22013 -0.0127,-0.127 -0.0254,-0.254 -0.0085,-0.13124 -0.01693,-0.254 -0.0042,-0.12277 -0.0042,-0.2159 l 0,-0.18627 0.3683,0 z"
         style="font-style:normal;font-variant:normal;font-weight:normal;font-stretch:normal;font-size:4.23333359px;font-family:'Ubuntu Mono';-inkscape-font-specification:'Ubuntu Mono';fill:#ffffff"
         id="path4632" />
      <path
         d="m 69.205927,115.68772 q 0.254,-0.0974 0.478366,-0.0974 0.122767,0 0.2286,0.0381 0.110067,0.0339 0.186267,0.11007 0.182033,-0.14817 0.389467,-0.14817 0.1016,0 0.1905,0.0381 0.09313,0.0381 0.160867,0.1143 0.07197,0.0762 0.1143,0.1905 0.04233,0.1143 0.04233,0.2667 l 0,1.397 -0.3175,0 0,-1.40546 q 0,-0.1524 -0.06773,-0.23284 -0.06773,-0.0804 -0.169334,-0.0804 -0.0508,0 -0.105833,0.0254 -0.05503,0.0254 -0.1016,0.0804 0.0254,0.0974 0.0254,0.2159 l 0,0.63924 -0.3175,0 0,-0.64347 q 0,-0.14817 -0.04657,-0.23283 -0.04657,-0.0847 -0.182033,-0.0847 -0.08467,0 -0.1905,0.0381 l 0,1.68063 -0.3175,0 0,-1.90923 z"
         style="font-style:normal;font-variant:normal;font-weight:normal;font-stretch:normal;font-size:4.23333359px;font-family:'Ubuntu Mono';-inkscape-font-specification:'Ubuntu Mono';fill:#ffffff"
         id="path4634" />
      <path
         d="m 74.75159,117.10589 q 0,-0.10584 -0.0889,-0.17357 -0.08467,-0.0677 -0.2159,-0.11853 -0.127,-0.0508 -0.2794,-0.0974 -0.1524,-0.0508 -0.283633,-0.12277 -0.127,-0.072 -0.2159,-0.1778 -0.08467,-0.10583 -0.08467,-0.27516 0,-0.23707 0.1905,-0.3937 0.194733,-0.16087 0.605367,-0.16087 0.160866,0 0.3302,0.0254 0.173566,0.0212 0.296333,0.0593 l -0.0635,0.31326 q -0.03387,-0.0169 -0.09313,-0.0339 -0.05927,-0.0212 -0.135467,-0.0339 -0.0762,-0.0169 -0.1651,-0.0254 -0.08467,-0.008 -0.1651,-0.008 -0.4572,0 -0.4572,0.24977 0,0.0889 0.08467,0.1524 0.0889,0.0593 0.220133,0.11007 0.131233,0.0508 0.283633,0.10583 0.1524,0.0508 0.283634,0.127 0.131233,0.0762 0.2159,0.18627 0.0889,0.10583 0.0889,0.27093 0,0.2667 -0.207434,0.41487 -0.207433,0.14393 -0.656166,0.14393 -0.2032,0 -0.372534,-0.0339 -0.169333,-0.0339 -0.321733,-0.1016 l 0.06773,-0.3175 q 0.148167,0.0677 0.309034,0.1143 0.1651,0.0423 0.351366,0.0423 0.478367,0 0.478367,-0.2413 z"
         style="font-style:normal;font-variant:normal;font-weight:normal;font-stretch:normal;font-size:4.23333359px;font-family:'Ubuntu Mono';-inkscape-font-specification:'Ubuntu Mono';fill:#ffffff"
         id="path4636" />
      <path
         d="m 77.329692,116.61482 q 0,0.23283 -0.06773,0.42333 -0.0635,0.18627 -0.182034,0.32174 -0.118533,0.13546 -0.283633,0.21166 -0.1651,0.072 -0.359833,0.072 -0.1905,0 -0.3556,-0.072 -0.160867,-0.0762 -0.2794,-0.21166 -0.118534,-0.13547 -0.186267,-0.32174 -0.0635,-0.1905 -0.0635,-0.42333 0,-0.23283 0.0635,-0.42333 0.06773,-0.1905 0.186267,-0.32174 0.118533,-0.13546 0.2794,-0.20743 0.1651,-0.0762 0.3556,-0.0762 0.194733,0 0.359833,0.0762 0.1651,0.072 0.283633,0.20743 0.118534,0.13124 0.182034,0.32174 0.06773,0.1905 0.06773,0.42333 z m -0.359833,0 q 0,-0.33443 -0.143934,-0.52493 -0.143933,-0.19474 -0.389466,-0.19474 -0.2413,0 -0.385234,0.19474 -0.1397,0.1905 -0.1397,0.52493 0,0.3302 0.1397,0.52493 0.143934,0.1905 0.385234,0.1905 0.245533,0 0.389466,-0.1905 0.143934,-0.19473 0.143934,-0.52493 z"
         style="font-style:normal;font-variant:normal;font-weight:normal;font-stretch:normal;font-size:4.23333359px;font-family:'Ubuntu Mono';-inkscape-font-specification:'Ubuntu Mono';fill:#ffffff"
         id="path4638" />
      <path
         d="m 77.951994,117.59695 0,-1.85843 q 0.4318,-0.14817 0.872067,-0.14817 0.135466,0 0.258233,0.0127 0.122767,0.008 0.270933,0.0423 l -0.0635,0.30903 q -0.135466,-0.0381 -0.2413,-0.0466 -0.1016,-0.0127 -0.224366,-0.0127 -0.258234,0 -0.524934,0.072 l 0,1.62983 -0.347133,0 z"
         style="font-style:normal;font-variant:normal;font-weight:normal;font-stretch:normal;font-size:4.23333359px;font-family:'Ubuntu Mono';-inkscape-font-specification:'Ubuntu Mono';fill:#ffffff"
         id="path4640" />
      <path
         d="m 80.068659,117.59695 0,-1.85843 q 0.4318,-0.14817 0.872067,-0.14817 0.135466,0 0.258233,0.0127 0.122767,0.008 0.270933,0.0423 l -0.0635,0.30903 q -0.135466,-0.0381 -0.2413,-0.0466 -0.1016,-0.0127 -0.224366,-0.0127 -0.258234,0 -0.524934,0.072 l 0,1.62983 -0.347133,0 z"
         style="font-style:normal;font-variant:normal;font-weight:normal;font-stretch:normal;font-size:4.23333359px;font-family:'Ubuntu Mono';-inkscape-font-specification:'Ubuntu Mono';fill:#ffffff"
         id="path4642" />
      <path
         d="m 81.948257,117.96525 q 0.0381,0.0212 0.105833,0.0339 0.07197,0.0127 0.131234,0.0127 0.207433,0 0.321733,-0.0931 0.118533,-0.0889 0.2159,-0.29634 -0.237067,-0.44873 -0.4445,-0.96096 -0.207433,-0.51647 -0.3429,-1.0287 l 0.381,0 q 0.04233,0.16933 0.09737,0.3683 0.05927,0.19473 0.131233,0.40216 0.07197,0.20744 0.1524,0.4191 0.08467,0.20744 0.1778,0.39794 0.06773,-0.19474 0.127,-0.38524 0.05927,-0.1905 0.110067,-0.381 0.0508,-0.19473 0.1016,-0.3937 0.0508,-0.2032 0.105833,-0.42756 l 0.364067,0 q -0.135467,0.55033 -0.3048,1.0668 -0.1651,0.51646 -0.3556,0.95673 -0.07197,0.16933 -0.156634,0.2921 -0.08043,0.12277 -0.1778,0.2032 -0.09737,0.0804 -0.220133,0.11853 -0.122767,0.0381 -0.2794,0.0381 -0.08043,0 -0.1778,-0.0212 -0.09313,-0.0212 -0.127,-0.0381 l 0.0635,-0.28364 z"
         style="font-style:normal;font-variant:normal;font-weight:normal;font-stretch:normal;font-size:4.23333359px;font-family:'Ubuntu Mono';-inkscape-font-specification:'Ubuntu Mono';fill:#ffffff"
         id="path4644" />
      <path
         d="m 87.913028,116.28462 q 0,0.36407 -0.09313,0.61807 -0.0889,0.254 -0.249767,0.41486 -0.156633,0.15664 -0.376767,0.2286 -0.2159,0.072 -0.4699,0.072 -0.262467,0 -0.529167,-0.0635 l 0,-2.54 q 0.2667,-0.0635 0.529167,-0.0635 0.254,0 0.4699,0.072 0.220134,0.072 0.376767,0.23283 0.160867,0.16087 0.249767,0.41487 0.09313,0.254 0.09313,0.61383 z m -1.3716,1.02023 q 0.105833,0.0127 0.2159,0.0127 0.1905,0 0.338666,-0.055 0.148167,-0.0593 0.249767,-0.18203 0.1016,-0.127 0.156634,-0.32174 0.05503,-0.19896 0.05503,-0.47413 0,-0.5334 -0.207433,-0.78317 -0.203201,-0.24976 -0.605367,-0.24976 -0.05503,0 -0.110067,0.004 -0.0508,0 -0.09313,0.008 l 0,2.04046 z"
         style="font-style:normal;font-variant:normal;font-weight:normal;font-stretch:normal;font-size:4.23333359px;font-family:'Ubuntu Mono';-inkscape-font-specification:'Ubuntu Mono';fill:#ffffff"
         id="path4646" />
      <path
         d="m 89.161859,117.34719 q 0.131234,0 0.232834,-0.008 0.105833,-0.008 0.173566,-0.0212 l 0,-0.5842 q -0.06773,-0.0212 -0.1651,-0.0339 -0.09313,-0.0127 -0.198966,-0.0127 -0.09737,0 -0.1905,0.0169 -0.09313,0.0127 -0.1651,0.0508 -0.07197,0.0381 -0.118534,0.1016 -0.04657,0.0593 -0.04657,0.1524 0,0.1905 0.127,0.2667 0.131233,0.072 0.351366,0.072 z m -0.03387,-1.76107 q 0.220133,0 0.3683,0.055 0.1524,0.055 0.245533,0.1524 0.09313,0.0974 0.131233,0.23707 0.0381,0.1397 0.0381,0.3048 l 0,1.22767 q -0.122766,0.0212 -0.325966,0.0508 -0.198967,0.0296 -0.410634,0.0296 -0.160866,0 -0.313266,-0.0296 -0.1524,-0.0254 -0.270934,-0.0931 -0.118533,-0.072 -0.1905,-0.19473 -0.07197,-0.12277 -0.07197,-0.31327 0,-0.16933 0.07197,-0.28363 0.0762,-0.11853 0.1905,-0.1905 0.118534,-0.072 0.2667,-0.1016 0.1524,-0.0339 0.3048,-0.0339 0.207434,0 0.4064,0.0466 l 0,-0.0974 q 0,-0.0889 -0.02117,-0.16933 -0.01693,-0.0847 -0.07197,-0.1524 -0.0508,-0.0677 -0.143933,-0.10583 -0.0889,-0.0423 -0.232834,-0.0423 -0.182033,0 -0.3175,0.0254 -0.135466,0.0254 -0.207433,0.0508 l -0.04233,-0.28786 q 0.07197,-0.0339 0.237066,-0.0593 0.169334,-0.0254 0.359834,-0.0254 z"
         style="font-style:normal;font-variant:normal;font-weight:normal;font-stretch:normal;font-size:4.23333359px;font-family:'Ubuntu Mono';-inkscape-font-specification:'Ubuntu Mono';fill:#ffffff"
         id="path4648" />
      <path
         d="m 92.188691,115.63269 q -0.0762,0.27516 -0.173567,0.54186 -0.09737,0.26247 -0.198966,0.51647 -0.1016,0.24977 -0.207434,0.47837 -0.105833,0.2286 -0.2032,0.42756 l -0.3175,0 q -0.198966,-0.39793 -0.402166,-0.90593 -0.2032,-0.508 -0.359834,-1.05833 l 0.381,0 q 0.0508,0.18626 0.1143,0.3937 0.06773,0.20743 0.1397,0.41486 0.07197,0.20744 0.143934,0.40217 0.0762,0.1905 0.148166,0.3429 0.07197,-0.1524 0.148167,-0.3429 0.08043,-0.19473 0.156633,-0.40217 0.0762,-0.20743 0.143934,-0.41486 0.07197,-0.20744 0.122766,-0.3937 l 0.364067,0 z"
         style="font-style:normal;font-variant:normal;font-weight:normal;font-stretch:normal;font-size:4.23333359px;font-family:'Ubuntu Mono';-inkscape-font-specification:'Ubuntu Mono';fill:#ffffff"
         id="path4650" />
      <path
         d="m 93.412126,115.58612 q 0.397934,0 0.613834,0.24977 0.2159,0.24553 0.2159,0.7493 l 0,0.12276 -1.405467,0 q 0.02117,0.3048 0.198967,0.46567 0.182033,0.15663 0.508,0.15663 0.186266,0 0.3175,-0.0296 0.131233,-0.0296 0.198966,-0.0635 l 0.04657,0.29633 q -0.0635,0.0339 -0.2286,0.072 -0.1651,0.0381 -0.372533,0.0381 -0.254,0 -0.448734,-0.0762 -0.1905,-0.0804 -0.3175,-0.2159 -0.127,-0.13547 -0.1905,-0.32173 -0.0635,-0.1905 -0.0635,-0.41064 0,-0.26246 0.08043,-0.4572 0.08043,-0.19473 0.211666,-0.32173 0.131234,-0.127 0.296334,-0.1905 0.1651,-0.0635 0.338666,-0.0635 z m 0.474134,0.8382 q 0,-0.24977 -0.131234,-0.3937 -0.131233,-0.14817 -0.347133,-0.14817 -0.122767,0 -0.224367,0.0466 -0.09737,0.0466 -0.169333,0.12277 -0.07197,0.0762 -0.1143,0.17356 -0.04233,0.0974 -0.05503,0.19897 l 1.0414,0 z"
         style="font-style:normal;font-variant:normal;font-weight:normal;font-stretch:normal;font-size:4.23333359px;font-family:'Ubuntu Mono';-inkscape-font-specification:'Ubuntu Mono';fill:#ffffff"
         id="path4652" />
      <path
         d="m 95.063128,117.93139 q 0.0762,-0.0169 0.148167,-0.0339 0.0762,-0.0169 0.1397,-0.0508 0.0635,-0.0296 0.1143,-0.0804 0.0508,-0.0466 0.08043,-0.13124 -0.135466,-0.0127 -0.198966,-0.1016 -0.05927,-0.0931 -0.05927,-0.18203 0,-0.16933 0.09313,-0.254 0.09737,-0.0889 0.220134,-0.0889 0.156633,0 0.237066,0.1143 0.08043,0.11007 0.08043,0.27093 0,0.12277 -0.0508,0.254 -0.04657,0.13547 -0.148167,0.24977 -0.09737,0.11853 -0.245533,0.19897 -0.148167,0.0847 -0.351367,0.11006 l -0.05927,-0.27516 z"
         style="font-style:normal;font-variant:normal;font-weight:normal;font-stretch:normal;font-size:4.23333359px;font-family:'Ubuntu Mono';-inkscape-font-specification:'Ubuntu Mono';fill:#ffffff"
         id="path4654" />
      <path
         d="m 99.897591,115.27285 0,2.02777 0.507999,0 0,0.29633 -1.363132,0 0,-0.29633 0.508,0 0,-2.02777 -0.508,0 0,-0.29633 1.363132,0 0,0.29633 -0.507999,0 z"
         style="font-style:normal;font-variant:normal;font-weight:normal;font-stretch:normal;font-size:4.23333359px;font-family:'Ubuntu Mono';-inkscape-font-specification:'Ubuntu Mono';fill:#ffffff"
         id="path4656" />
      <path
         d="m 102.02273,114.72252 0,0.1905 q 0,0.0931 -0.008,0.2159 -0.004,0.11853 -0.0169,0.24977 -0.008,0.127 -0.0212,0.254 -0.0127,0.12276 -0.0296,0.22013 l -0.2159,0 q -0.0169,-0.0974 -0.0296,-0.22013 -0.0127,-0.127 -0.0254,-0.254 -0.008,-0.13124 -0.0169,-0.254 -0.004,-0.12277 -0.004,-0.2159 l 0,-0.18627 0.3683,0 z"
         style="font-style:normal;font-variant:normal;font-weight:normal;font-stretch:normal;font-size:4.23333359px;font-family:'Ubuntu Mono';-inkscape-font-specification:'Ubuntu Mono';fill:#ffffff"
         id="path4658" />
      <path
         d="m 103.0726,115.68772 q 0.254,-0.0974 0.47836,-0.0974 0.12277,0 0.2286,0.0381 0.11007,0.0339 0.18627,0.11007 0.18203,-0.14817 0.38947,-0.14817 0.1016,0 0.1905,0.0381 0.0931,0.0381 0.16086,0.1143 0.072,0.0762 0.1143,0.1905 0.0423,0.1143 0.0423,0.2667 l 0,1.397 -0.3175,0 0,-1.40546 q 0,-0.1524 -0.0677,-0.23284 -0.0677,-0.0804 -0.16933,-0.0804 -0.0508,0 -0.10583,0.0254 -0.055,0.0254 -0.1016,0.0804 0.0254,0.0974 0.0254,0.2159 l 0,0.63924 -0.3175,0 0,-0.64347 q 0,-0.14817 -0.0466,-0.23283 -0.0466,-0.0847 -0.18203,-0.0847 -0.0847,0 -0.1905,0.0381 l 0,1.68063 -0.3175,0 0,-1.90923 z"
         style="font-style:normal;font-variant:normal;font-weight:normal;font-stretch:normal;font-size:4.23333359px;font-family:'Ubuntu Mono';-inkscape-font-specification:'Ubuntu Mono';fill:#ffffff"
         id="path4660" />
      <path
         d="m 108.21186,117.34719 q 0.13123,0 0.23283,-0.008 0.10584,-0.008 0.17357,-0.0212 l 0,-0.5842 q -0.0677,-0.0212 -0.1651,-0.0339 -0.0931,-0.0127 -0.19897,-0.0127 -0.0974,0 -0.1905,0.0169 -0.0931,0.0127 -0.1651,0.0508 -0.072,0.0381 -0.11853,0.1016 -0.0466,0.0593 -0.0466,0.1524 0,0.1905 0.127,0.2667 0.13124,0.072 0.35137,0.072 z m -0.0339,-1.76107 q 0.22014,0 0.3683,0.055 0.1524,0.055 0.24554,0.1524 0.0931,0.0974 0.13123,0.23707 0.0381,0.1397 0.0381,0.3048 l 0,1.22767 q -0.12277,0.0212 -0.32597,0.0508 -0.19896,0.0296 -0.41063,0.0296 -0.16087,0 -0.31327,-0.0296 -0.1524,-0.0254 -0.27093,-0.0931 -0.11853,-0.072 -0.1905,-0.19473 -0.072,-0.12277 -0.072,-0.31327 0,-0.16933 0.072,-0.28363 0.0762,-0.11853 0.1905,-0.1905 0.11853,-0.072 0.2667,-0.1016 0.1524,-0.0339 0.3048,-0.0339 0.20743,0 0.4064,0.0466 l 0,-0.0974 q 0,-0.0889 -0.0212,-0.16933 -0.0169,-0.0847 -0.072,-0.1524 -0.0508,-0.0677 -0.14394,-0.10583 -0.0889,-0.0423 -0.23283,-0.0423 -0.18203,0 -0.3175,0.0254 -0.13547,0.0254 -0.20743,0.0508 l -0.0423,-0.28786 q 0.072,-0.0339 0.23707,-0.0593 0.16933,-0.0254 0.35983,-0.0254 z"
         style="font-style:normal;font-variant:normal;font-weight:normal;font-stretch:normal;font-size:4.23333359px;font-family:'Ubuntu Mono';-inkscape-font-specification:'Ubuntu Mono';fill:#ffffff"
         id="path4662" />
      <path
         d="m 109.93059,117.59695 0,-1.67216 -0.41486,0 0,-0.2921 0.41486,0 0,-0.1778 q 0,-0.2286 0.0635,-0.37677 0.0635,-0.1524 0.1651,-0.24553 0.10584,-0.0931 0.2413,-0.13124 0.1397,-0.0381 0.2921,-0.0381 0.1524,0 0.3048,0.0339 0.15664,0.0339 0.2921,0.0804 l -0.0635,0.30057 q -0.0931,-0.0466 -0.23283,-0.0804 -0.1397,-0.0339 -0.28363,-0.0339 -0.0889,0 -0.16934,0.0254 -0.0762,0.0212 -0.13546,0.0804 -0.0593,0.055 -0.0931,0.1524 -0.0339,0.0931 -0.0339,0.23707 l 0,0.17357 0.79163,0 0,0.2921 -0.79163,0 0,1.67216 -0.34714,0 z"
         style="font-style:normal;font-variant:normal;font-weight:normal;font-stretch:normal;font-size:4.23333359px;font-family:'Ubuntu Mono';-inkscape-font-specification:'Ubuntu Mono';fill:#ffffff"
         id="path4664" />
      <path
         d="m 111.81866,117.59695 0,-1.85843 q 0.4318,-0.14817 0.87207,-0.14817 0.13547,0 0.25823,0.0127 0.12277,0.008 0.27094,0.0423 l -0.0635,0.30903 q -0.13547,-0.0381 -0.2413,-0.0466 -0.1016,-0.0127 -0.22437,-0.0127 -0.25823,0 -0.52493,0.072 l 0,1.62983 -0.34714,0 z"
         style="font-style:normal;font-variant:normal;font-weight:normal;font-stretch:normal;font-size:4.23333359px;font-family:'Ubuntu Mono';-inkscape-font-specification:'Ubuntu Mono';fill:#ffffff"
         id="path4666" />
      <path
         d="m 114.56186,117.34719 q 0.13123,0 0.23283,-0.008 0.10583,-0.008 0.17357,-0.0212 l 0,-0.5842 q -0.0677,-0.0212 -0.1651,-0.0339 -0.0931,-0.0127 -0.19897,-0.0127 -0.0974,0 -0.1905,0.0169 -0.0931,0.0127 -0.1651,0.0508 -0.072,0.0381 -0.11853,0.1016 -0.0466,0.0593 -0.0466,0.1524 0,0.1905 0.127,0.2667 0.13123,0.072 0.35137,0.072 z m -0.0339,-1.76107 q 0.22013,0 0.3683,0.055 0.1524,0.055 0.24553,0.1524 0.0931,0.0974 0.13124,0.23707 0.0381,0.1397 0.0381,0.3048 l 0,1.22767 q -0.12277,0.0212 -0.32597,0.0508 -0.19897,0.0296 -0.41063,0.0296 -0.16087,0 -0.31327,-0.0296 -0.1524,-0.0254 -0.27093,-0.0931 -0.11854,-0.072 -0.1905,-0.19473 -0.072,-0.12277 -0.072,-0.31327 0,-0.16933 0.072,-0.28363 0.0762,-0.11853 0.1905,-0.1905 0.11853,-0.072 0.2667,-0.1016 0.1524,-0.0339 0.3048,-0.0339 0.20743,0 0.4064,0.0466 l 0,-0.0974 q 0,-0.0889 -0.0212,-0.16933 -0.0169,-0.0847 -0.072,-0.1524 -0.0508,-0.0677 -0.14393,-0.10583 -0.0889,-0.0423 -0.23283,-0.0423 -0.18204,0 -0.3175,0.0254 -0.13547,0.0254 -0.20744,0.0508 l -0.0423,-0.28786 q 0.072,-0.0339 0.23707,-0.0593 0.16933,-0.0254 0.35983,-0.0254 z"
         style="font-style:normal;font-variant:normal;font-weight:normal;font-stretch:normal;font-size:4.23333359px;font-family:'Ubuntu Mono';-inkscape-font-specification:'Ubuntu Mono';fill:#ffffff"
         id="path4668" />
      <path
         d="m 116.48379,115.32789 q -0.11006,0 -0.1905,-0.0762 -0.0804,-0.0762 -0.0804,-0.20744 0,-0.13123 0.0804,-0.20743 0.0804,-0.0762 0.1905,-0.0762 0.1143,0 0.1905,0.0762 0.0804,0.0762 0.0804,0.20743 0,0.13124 -0.0804,0.20744 -0.0762,0.0762 -0.1905,0.0762 z m -0.0889,0.5969 -0.56726,0 0,-0.2921 0.9144,0 0,1.2065 q 0,0.2921 0.0804,0.3937 0.0804,0.0974 0.2413,0.0974 0.12277,0 0.22437,-0.0296 0.10583,-0.0296 0.1651,-0.0635 l 0.0508,0.29633 q -0.0254,0.0127 -0.072,0.0339 -0.0466,0.0169 -0.11007,0.0339 -0.0593,0.0169 -0.13546,0.0296 -0.072,0.0127 -0.1524,0.0127 -0.18627,0 -0.30904,-0.0508 -0.12276,-0.0508 -0.19896,-0.1524 -0.072,-0.1016 -0.1016,-0.24977 -0.0296,-0.1524 -0.0296,-0.35136 l 0,-0.9144 z"
         style="font-style:normal;font-variant:normal;font-weight:normal;font-stretch:normal;font-size:4.23333359px;font-family:'Ubuntu Mono';-inkscape-font-specification:'Ubuntu Mono';fill:#ffffff"
         id="path4670" />
      <path
         d="m 119.18043,116.04755 q -0.0593,-0.055 -0.17357,-0.1016 -0.1143,-0.0508 -0.23707,-0.0508 -0.1397,0 -0.2413,0.055 -0.0974,0.055 -0.16086,0.1524 -0.0635,0.0931 -0.0931,0.2286 -0.0296,0.13123 -0.0296,0.28363 0,0.3429 0.16087,0.52917 0.16086,0.18626 0.4191,0.18626 0.13123,0 0.22013,-0.0127 0.0931,-0.0127 0.13547,-0.0254 l 0,-1.2446 z m 0,-1.32503 0.35136,-0.0593 0,2.87867 q -0.1143,0.0339 -0.2921,0.0677 -0.1778,0.0339 -0.41486,0.0339 -0.21167,0 -0.38524,-0.072 -0.17356,-0.072 -0.29633,-0.2032 -0.12277,-0.13546 -0.1905,-0.32596 -0.0677,-0.1905 -0.0677,-0.42757 0,-0.2286 0.055,-0.41487 0.0593,-0.1905 0.16933,-0.32596 0.11007,-0.13547 0.26247,-0.21167 0.15663,-0.0762 0.3556,-0.0762 0.15663,0 0.27517,0.0381 0.11853,0.0381 0.1778,0.0804 l 0,-0.98213 z"
         style="font-style:normal;font-variant:normal;font-weight:normal;font-stretch:normal;font-size:4.23333359px;font-family:'Ubuntu Mono';-inkscape-font-specification:'Ubuntu Mono';fill:#ffffff"
         id="path4672" />
      <path
         d="m 123.18093,115.27285 0,2.02777 0.508,0 0,0.29633 -1.36313,0 0,-0.29633 0.508,0 0,-2.02777 -0.508,0 0,-0.29633 1.36313,0 0,0.29633 -0.508,0 z"
         style="font-style:normal;font-variant:normal;font-weight:normal;font-stretch:normal;font-size:4.23333359px;font-family:'Ubuntu Mono';-inkscape-font-specification:'Ubuntu Mono';fill:#ffffff"
         id="path4674" />
      <path
         d="m 126.38979,116.61905 q 0,-0.2667 0.0847,-0.46143 0.0847,-0.19473 0.23283,-0.32173 0.14817,-0.127 0.3429,-0.18627 0.19897,-0.0635 0.42334,-0.0635 0.14393,0 0.28363,0.0212 0.14394,0.0169 0.3048,0.0677 l -0.0804,0.30057 q -0.1397,-0.0508 -0.25823,-0.0635 -0.1143,-0.0169 -0.23284,-0.0169 -0.1524,0 -0.28787,0.0423 -0.13546,0.0381 -0.23706,0.127 -0.0974,0.0847 -0.15664,0.22436 -0.0593,0.13547 -0.0593,0.3302 0,0.18627 0.055,0.32174 0.055,0.13123 0.1524,0.22013 0.1016,0.0847 0.2413,0.127 0.1397,0.0423 0.30904,0.0423 0.13546,0 0.25823,-0.0127 0.127,-0.0169 0.27517,-0.0677 l 0.0508,0.2921 q -0.14817,0.055 -0.30057,0.0762 -0.1524,0.0254 -0.3302,0.0254 -0.23707,0 -0.43604,-0.0635 -0.19473,-0.0677 -0.33866,-0.19473 -0.1397,-0.127 -0.22014,-0.3175 -0.0762,-0.19474 -0.0762,-0.44874 z"
         style="font-style:normal;font-variant:normal;font-weight:normal;font-stretch:normal;font-size:4.23333359px;font-family:'Ubuntu Mono';-inkscape-font-specification:'Ubuntu Mono';fill:#ffffff"
         id="path4676" />
      <path
         d="m 129.37853,117.34719 q 0.13123,0 0.23283,-0.008 0.10584,-0.008 0.17357,-0.0212 l 0,-0.5842 q -0.0677,-0.0212 -0.1651,-0.0339 -0.0931,-0.0127 -0.19897,-0.0127 -0.0974,0 -0.1905,0.0169 -0.0931,0.0127 -0.1651,0.0508 -0.072,0.0381 -0.11853,0.1016 -0.0466,0.0593 -0.0466,0.1524 0,0.1905 0.127,0.2667 0.13124,0.072 0.35137,0.072 z m -0.0339,-1.76107 q 0.22014,0 0.3683,0.055 0.1524,0.055 0.24554,0.1524 0.0931,0.0974 0.13123,0.23707 0.0381,0.1397 0.0381,0.3048 l 0,1.22767 q -0.12277,0.0212 -0.32597,0.0508 -0.19896,0.0296 -0.41063,0.0296 -0.16087,0 -0.31327,-0.0296 -0.1524,-0.0254 -0.27093,-0.0931 -0.11853,-0.072 -0.1905,-0.19473 -0.072,-0.12277 -0.072,-0.31327 0,-0.16933 0.072,-0.28363 0.0762,-0.11853 0.1905,-0.1905 0.11853,-0.072 0.2667,-0.1016 0.1524,-0.0339 0.3048,-0.0339 0.20743,0 0.4064,0.0466 l 0,-0.0974 q 0,-0.0889 -0.0212,-0.16933 -0.0169,-0.0847 -0.072,-0.1524 -0.0508,-0.0677 -0.14394,-0.10583 -0.0889,-0.0423 -0.23283,-0.0423 -0.18203,0 -0.3175,0.0254 -0.13547,0.0254 -0.20743,0.0508 l -0.0423,-0.28786 q 0.072,-0.0339 0.23707,-0.0593 0.16933,-0.0254 0.35983,-0.0254 z"
         style="font-style:normal;font-variant:normal;font-weight:normal;font-stretch:normal;font-size:4.23333359px;font-family:'Ubuntu Mono';-inkscape-font-specification:'Ubuntu Mono';fill:#ffffff"
         id="path4678" />
      <path
         d="m 130.71626,115.68772 q 0.1905,-0.0466 0.37676,-0.072 0.1905,-0.0254 0.3556,-0.0254 0.3937,0 0.59267,0.2032 0.2032,0.2032 0.2032,0.65194 l 0,1.15146 -0.34713,0 0,-1.08796 q 0,-0.1905 -0.0339,-0.30904 -0.0339,-0.11853 -0.0974,-0.18203 -0.0593,-0.0677 -0.14816,-0.0931 -0.0847,-0.0254 -0.18627,-0.0254 -0.0847,0 -0.18203,0.0127 -0.0931,0.008 -0.18204,0.0254 l 0,1.65946 -0.35136,0 0,-1.90923 z"
         style="font-style:normal;font-variant:normal;font-weight:normal;font-stretch:normal;font-size:4.23333359px;font-family:'Ubuntu Mono';-inkscape-font-specification:'Ubuntu Mono';fill:#ffffff"
         id="path4680" />
      <path
         d="m 133.77273,114.72252 0,0.1905 q 0,0.0931 -0.008,0.2159 -0.004,0.11853 -0.0169,0.24977 -0.008,0.127 -0.0212,0.254 -0.0127,0.12276 -0.0296,0.22013 l -0.2159,0 q -0.0169,-0.0974 -0.0296,-0.22013 -0.0127,-0.127 -0.0254,-0.254 -0.008,-0.13124 -0.0169,-0.254 -0.004,-0.12277 -0.004,-0.2159 l 0,-0.18627 0.3683,0 z"
         style="font-style:normal;font-variant:normal;font-weight:normal;font-stretch:normal;font-size:4.23333359px;font-family:'Ubuntu Mono';-inkscape-font-specification:'Ubuntu Mono';fill:#ffffff"
         id="path4682" />
      <path
         d="m 135.67773,115.63269 0.82973,0 0,0.2921 -0.82973,0 0,0.9144 q 0,0.14816 0.0212,0.2413 0.0212,0.0931 0.0677,0.1524 0.0508,0.055 0.127,0.0762 0.0762,0.0212 0.18627,0.0212 0.1524,0 0.24553,-0.0254 0.0931,-0.0254 0.1778,-0.0677 l 0.0508,0.29633 q -0.0593,0.0254 -0.1905,0.0677 -0.127,0.0423 -0.3175,0.0423 -0.22013,0 -0.35983,-0.0508 -0.1397,-0.0508 -0.22014,-0.1524 -0.0762,-0.1016 -0.10583,-0.24977 -0.0296,-0.1524 -0.0296,-0.35136 l 0,-0.9144 -0.41487,0 0,-0.2921 0.41487,0 0,-0.55034 0.34713,-0.0593 0,0.6096 z"
         style="font-style:normal;font-variant:normal;font-weight:normal;font-stretch:normal;font-size:4.23333359px;font-family:'Ubuntu Mono';-inkscape-font-specification:'Ubuntu Mono';fill:#ffffff"
         id="path4684" />
      <path
         d="m 140.3471,116.04755 q -0.0593,-0.055 -0.17357,-0.1016 -0.1143,-0.0508 -0.23706,-0.0508 -0.1397,0 -0.2413,0.055 -0.0974,0.055 -0.16087,0.1524 -0.0635,0.0931 -0.0931,0.2286 -0.0296,0.13123 -0.0296,0.28363 0,0.3429 0.16087,0.52917 0.16087,0.18626 0.4191,0.18626 0.13123,0 0.22013,-0.0127 0.0931,-0.0127 0.13547,-0.0254 l 0,-1.2446 z m 0,-1.32503 0.35137,-0.0593 0,2.87867 q -0.1143,0.0339 -0.2921,0.0677 -0.1778,0.0339 -0.41487,0.0339 -0.21167,0 -0.38523,-0.072 -0.17357,-0.072 -0.29634,-0.2032 -0.12276,-0.13546 -0.1905,-0.32596 -0.0677,-0.1905 -0.0677,-0.42757 0,-0.2286 0.055,-0.41487 0.0593,-0.1905 0.16934,-0.32596 0.11006,-0.13547 0.26246,-0.21167 0.15664,-0.0762 0.3556,-0.0762 0.15664,0 0.27517,0.0381 0.11853,0.0381 0.1778,0.0804 l 0,-0.98213 z"
         style="font-style:normal;font-variant:normal;font-weight:normal;font-stretch:normal;font-size:4.23333359px;font-family:'Ubuntu Mono';-inkscape-font-specification:'Ubuntu Mono';fill:#ffffff"
         id="path4686" />
      <path
         d="m 142.94636,116.61482 q 0,0.23283 -0.0677,0.42333 -0.0635,0.18627 -0.18204,0.32174 -0.11853,0.13546 -0.28363,0.21166 -0.1651,0.072 -0.35983,0.072 -0.1905,0 -0.3556,-0.072 -0.16087,-0.0762 -0.2794,-0.21166 -0.11854,-0.13547 -0.18627,-0.32174 -0.0635,-0.1905 -0.0635,-0.42333 0,-0.23283 0.0635,-0.42333 0.0677,-0.1905 0.18627,-0.32174 0.11853,-0.13546 0.2794,-0.20743 0.1651,-0.0762 0.3556,-0.0762 0.19473,0 0.35983,0.0762 0.1651,0.072 0.28363,0.20743 0.11854,0.13124 0.18204,0.32174 0.0677,0.1905 0.0677,0.42333 z m -0.35983,0 q 0,-0.33443 -0.14394,-0.52493 -0.14393,-0.19474 -0.38946,-0.19474 -0.2413,0 -0.38524,0.19474 -0.1397,0.1905 -0.1397,0.52493 0,0.3302 0.1397,0.52493 0.14394,0.1905 0.38524,0.1905 0.24553,0 0.38946,-0.1905 0.14394,-0.19473 0.14394,-0.52493 z"
         style="font-style:normal;font-variant:normal;font-weight:normal;font-stretch:normal;font-size:4.23333359px;font-family:'Ubuntu Mono';-inkscape-font-specification:'Ubuntu Mono';fill:#ffffff"
         id="path4688" />
      <path
         d="m 146.26106,115.63269 0.82974,0 0,0.2921 -0.82974,0 0,0.9144 q 0,0.14816 0.0212,0.2413 0.0212,0.0931 0.0677,0.1524 0.0508,0.055 0.127,0.0762 0.0762,0.0212 0.18627,0.0212 0.1524,0 0.24553,-0.0254 0.0931,-0.0254 0.1778,-0.0677 l 0.0508,0.29633 q -0.0593,0.0254 -0.1905,0.0677 -0.127,0.0423 -0.3175,0.0423 -0.22013,0 -0.35983,-0.0508 -0.1397,-0.0508 -0.22013,-0.1524 -0.0762,-0.1016 -0.10584,-0.24977 -0.0296,-0.1524 -0.0296,-0.35136 l 0,-0.9144 -0.41487,0 0,-0.2921 0.41487,0 0,-0.55034 0.34713,-0.0593 0,0.6096 z"
         style="font-style:normal;font-variant:normal;font-weight:normal;font-stretch:normal;font-size:4.23333359px;font-family:'Ubuntu Mono';-inkscape-font-specification:'Ubuntu Mono';fill:#ffffff"
         id="path4690" />
      <path
         d="m 147.64959,117.59695 0,-2.87443 0.35137,-0.0593 0,0.99907 q 0.0847,-0.0339 0.1905,-0.0508 0.10583,-0.0212 0.20743,-0.0212 0.22437,0 0.37254,0.0677 0.1524,0.0635 0.2413,0.18203 0.0889,0.11853 0.127,0.28363 0.0381,0.1651 0.0381,0.36407 l 0,1.10913 -0.34714,0 0,-1.03293 q 0,-0.36407 -0.1016,-0.51223 -0.1016,-0.1524 -0.36406,-0.1524 -0.11007,0 -0.2159,0.0254 -0.1016,0.0212 -0.14817,0.0423 l 0,1.62983 -0.35137,0 z"
         style="font-style:normal;font-variant:normal;font-weight:normal;font-stretch:normal;font-size:4.23333359px;font-family:'Ubuntu Mono';-inkscape-font-specification:'Ubuntu Mono';fill:#ffffff"
         id="path4692" />
      <path
         d="m 150.54519,117.34719 q 0.13124,0 0.23284,-0.008 0.10583,-0.008 0.17356,-0.0212 l 0,-0.5842 q -0.0677,-0.0212 -0.1651,-0.0339 -0.0931,-0.0127 -0.19896,-0.0127 -0.0974,0 -0.1905,0.0169 -0.0931,0.0127 -0.1651,0.0508 -0.072,0.0381 -0.11854,0.1016 -0.0466,0.0593 -0.0466,0.1524 0,0.1905 0.127,0.2667 0.13123,0.072 0.35136,0.072 z m -0.0339,-1.76107 q 0.22013,0 0.3683,0.055 0.1524,0.055 0.24553,0.1524 0.0931,0.0974 0.13123,0.23707 0.0381,0.1397 0.0381,0.3048 l 0,1.22767 q -0.12276,0.0212 -0.32596,0.0508 -0.19897,0.0296 -0.41064,0.0296 -0.16086,0 -0.31326,-0.0296 -0.1524,-0.0254 -0.27094,-0.0931 -0.11853,-0.072 -0.1905,-0.19473 -0.072,-0.12277 -0.072,-0.31327 0,-0.16933 0.072,-0.28363 0.0762,-0.11853 0.1905,-0.1905 0.11854,-0.072 0.2667,-0.1016 0.1524,-0.0339 0.3048,-0.0339 0.20744,0 0.4064,0.0466 l 0,-0.0974 q 0,-0.0889 -0.0212,-0.16933 -0.0169,-0.0847 -0.072,-0.1524 -0.0508,-0.0677 -0.14393,-0.10583 -0.0889,-0.0423 -0.23284,-0.0423 -0.18203,0 -0.3175,0.0254 -0.13546,0.0254 -0.20743,0.0508 l -0.0423,-0.28786 q 0.072,-0.0339 0.23706,-0.0593 0.16934,-0.0254 0.35984,-0.0254 z"
         style="font-style:normal;font-variant:normal;font-weight:normal;font-stretch:normal;font-size:4.23333359px;font-family:'Ubuntu Mono';-inkscape-font-specification:'Ubuntu Mono';fill:#ffffff"
         id="path4694" />
      <path
         d="m 152.61106,115.63269 0.82974,0 0,0.2921 -0.82974,0 0,0.9144 q 0,0.14816 0.0212,0.2413 0.0212,0.0931 0.0677,0.1524 0.0508,0.055 0.127,0.0762 0.0762,0.0212 0.18627,0.0212 0.1524,0 0.24553,-0.0254 0.0931,-0.0254 0.1778,-0.0677 l 0.0508,0.29633 q -0.0593,0.0254 -0.1905,0.0677 -0.127,0.0423 -0.3175,0.0423 -0.22013,0 -0.35983,-0.0508 -0.1397,-0.0508 -0.22013,-0.1524 -0.0762,-0.1016 -0.10584,-0.24977 -0.0296,-0.1524 -0.0296,-0.35136 l 0,-0.9144 -0.41487,0 0,-0.2921 0.41487,0 0,-0.55034 0.34713,-0.0593 0,0.6096 z"
         style="font-style:normal;font-variant:normal;font-weight:normal;font-stretch:normal;font-size:4.23333359px;font-family:'Ubuntu Mono';-inkscape-font-specification:'Ubuntu Mono';fill:#ffffff"
         id="path4696" />
      <path
         d="m 155.07063,117.32602 q 0,0.127 -0.0847,0.22437 -0.0847,0.0974 -0.22437,0.0974 -0.14393,0 -0.2286,-0.0974 -0.0847,-0.0974 -0.0847,-0.22437 0,-0.13123 0.0847,-0.2286 0.0847,-0.0974 0.2286,-0.0974 0.1397,0 0.22437,0.0974 0.0847,0.0974 0.0847,0.2286 z"
         style="font-style:normal;font-variant:normal;font-weight:normal;font-stretch:normal;font-size:4.23333359px;font-family:'Ubuntu Mono';-inkscape-font-specification:'Ubuntu Mono';fill:#ffffff"
         id="path4698" />
      <path
         d="m 156.68777,114.72252 0,0.1905 q 0,0.18627 -0.0212,0.42757 -0.0212,0.23706 -0.055,0.43603 l -0.1778,0 q -0.0296,-0.19897 -0.0508,-0.43603 -0.0212,-0.2413 -0.0212,-0.4318 l 0,-0.18627 0.32597,0 z m 0.6985,0 0,0.1905 q 0,0.18627 -0.0212,0.42757 -0.0212,0.23706 -0.0508,0.43603 l -0.1778,0 q -0.0339,-0.19897 -0.055,-0.43603 -0.0212,-0.2413 -0.0212,-0.4318 l 0,-0.18627 0.32597,0 z"
         style="font-style:normal;font-variant:normal;font-weight:normal;font-stretch:normal;font-size:4.23333359px;font-family:'Ubuntu Mono';-inkscape-font-specification:'Ubuntu Mono';fill:#ffffff"
         id="path4700" />
      <path
         d="m 34.831256,121.89379 -0.169333,0 q -0.07197,0 -0.127,0.0339 -0.0508,0.0296 -0.0889,0.0847 -0.03387,0.0508 -0.05503,0.11853 -0.01693,0.0635 -0.01693,0.13124 l 0,0.68156 q 0,0.15664 -0.03387,0.27517 -0.02963,0.11853 -0.110066,0.19897 -0.0762,0.0847 -0.207434,0.127 -0.127,0.0423 -0.321733,0.0423 l -0.3429,0 0,-0.27517 0.359833,0 q 0.1778,0 0.249767,-0.0804 0.0762,-0.0804 0.0762,-0.2921 l 0,-0.5842 q 0,-0.28363 0.08467,-0.41487 0.08467,-0.13546 0.194733,-0.18203 -0.110067,-0.0508 -0.194733,-0.1905 -0.08467,-0.1397 -0.08467,-0.4064 l 0,-0.5842 q 0,-0.21167 -0.0762,-0.2921 -0.0762,-0.0804 -0.254,-0.0804 l -0.3556,0 0,-0.27517 0.3429,0 q 0.194733,0 0.321733,0.0423 0.131234,0.0423 0.207434,0.127 0.08043,0.0804 0.110066,0.19897 0.03387,0.11853 0.03387,0.27517 l 0,0.68156 q 0,0.0635 0.01693,0.13124 0.01693,0.0635 0.0508,0.11853 0.0381,0.0508 0.0889,0.0847 0.05503,0.0339 0.127,0.0339 l 0.173567,0 0,0.27094 z"
         style="font-style:normal;font-variant:normal;font-weight:normal;font-stretch:normal;font-size:4.23333359px;font-family:'Ubuntu Mono';-inkscape-font-specification:'Ubuntu Mono';fill:#ffffff"
         id="path4702" />
      <path
         d="m 34.035389,133.11212 q 0.1524,0 0.254,-0.0212 0.105834,-0.0254 0.1651,-0.0677 0.05927,-0.0466 0.08467,-0.10583 0.0254,-0.0635 0.0254,-0.13547 0,-0.10583 -0.0508,-0.1778 -0.0508,-0.0762 -0.1397,-0.13123 -0.08467,-0.0593 -0.194733,-0.1016 -0.110067,-0.0466 -0.2286,-0.0889 -0.1143,-0.0423 -0.2286,-0.0931 -0.110067,-0.0508 -0.198967,-0.12276 -0.08467,-0.0762 -0.1397,-0.1778 -0.05503,-0.10584 -0.05503,-0.25824 0,-0.27093 0.160866,-0.44026 0.160867,-0.16934 0.465667,-0.2159 l 0,-0.43604 0.313267,0 0,0.42334 q 0.169333,0.008 0.309033,0.0423 0.143933,0.0296 0.2286,0.0635 l -0.07197,0.29633 q -0.0889,-0.0339 -0.224366,-0.0677 -0.135467,-0.0381 -0.3429,-0.0381 -0.2286,0 -0.351367,0.0847 -0.118533,0.0847 -0.118533,0.24553 0,0.0889 0.03387,0.14817 0.0381,0.0593 0.105834,0.10583 0.06773,0.0466 0.156633,0.0847 0.09313,0.0381 0.207433,0.0804 0.143934,0.055 0.2794,0.11853 0.135467,0.0593 0.237067,0.14394 0.1016,0.0847 0.160867,0.2032 0.0635,0.11853 0.0635,0.28363 0,0.24977 -0.1651,0.42333 -0.1651,0.17357 -0.508,0.2159 l 0,0.48684 -0.313267,0 0,-0.47414 q -0.2667,-0.008 -0.4318,-0.0593 -0.1651,-0.0508 -0.245533,-0.0974 l 0.09313,-0.2921 q 0.1143,0.055 0.270933,0.10583 0.156634,0.0466 0.3937,0.0466 z"
         style="font-style:normal;font-variant:normal;font-weight:normal;font-stretch:normal;font-size:4.23333359px;font-family:'Ubuntu Mono';-inkscape-font-specification:'Ubuntu Mono';fill:#ffffff"
         id="path4704" />
    </g>
  </g>
</svg>
